<svg id="Layer_1" data-name="Layer 1" xmlns="http://www.w3.org/2000/svg" viewBox="0 0 300.13 147.72"><defs><style>.cls-1{fill:#1a5798;}</style></defs><title>msd-logo-main</title><path class="cls-1" d="M197.71,62.6a35,35,0,0,0-7.6-8.79,50.48,50.48,0,0,0-8-4.85c-4.89-2.5-23.55-10.05-27.5-11.75-3.22-1.39-4.21-2.59-4.94-4.08a7.39,7.39,0,0,1-.56-2.92,7.54,7.54,0,0,1,.54-2.86,7.21,7.21,0,0,1,4.1-3.92,10.87,10.87,0,0,1,3.37-.47h93.74a27.52,27.52,0,0,1,23.23,12.6c4.24,5.88,4.46,13.21,4.46,17.68,0,8-1.6,15.18-4.45,19.6-6.89,10.7-18.5,10.75-23.24,10.75H230.74V32.33h-4.31V87.89h24.46c16.06,0,22.68-6.16,27.27-13.54,2.86-4.59,4.6-12.45,4.6-21.11,0-5.34-.19-13-5.27-20.37-8.77-13.23-22.74-14.22-26.6-14.22H157.18a16.76,16.76,0,0,0-4.92.75,11.54,11.54,0,0,0-6.55,6.29,11.76,11.76,0,0,0-.88,4.56,11.88,11.88,0,0,0,.92,4.59c1.21,2.71,3.43,4.75,7.16,6.31,4.16,1.79,22.59,9.25,27.26,11.64a49.91,49.91,0,0,1,7.3,4.41c2.08,1.9,5.19,5,6.47,7.47a21.59,21.59,0,0,1,2.64,9.81,25.79,25.79,0,0,1-1.27,9.63,24.84,24.84,0,0,1-12.85,14.43c-3.46,1.64-8.2,2.17-11.77,2.17H101.57V35.56a18.29,18.29,0,0,0-3.71-11.51c-4.37-5.84-12.52-8-19.39-5.75-7.16,2.4-11.76,10-11.76,17.26v69.56H71V35.56c0-6.49,3.7-11.46,8.85-13.19a13.11,13.11,0,0,1,14.6,4.33,15.81,15.81,0,0,1,2.8,8.86v69.5H170.8a33.55,33.55,0,0,0,13.49-2.8,28.74,28.74,0,0,0,15.1-16.78,36.89,36.89,0,0,0,1.49-11.22A26.68,26.68,0,0,0,197.71,62.6Z"/><path class="cls-1" d="M32.76,17.69A17.69,17.69,0,0,0,19.58,29.54a19.71,19.71,0,0,0-.82,6v69.5h4.31V35.56a16.36,16.36,0,0,1,.61-4.72,13.38,13.38,0,0,1,9.93-8.93,13.23,13.23,0,0,1,12.64,4.36c1.5,1.8,3.17,4.34,3.17,9.29v69.56h4.29V35.56c0-6.38-2.19-9.71-4.19-12.08A17.55,17.55,0,0,0,32.76,17.69Z"/><path class="cls-1" d="M77.05,14.2a22,22,0,0,1,13.27-.31,21,21,0,0,1,11,7.48,21.54,21.54,0,0,1,4.63,14.2v61h64.78a20.89,20.89,0,0,0,9.92-2A20.16,20.16,0,0,0,191.2,82.72a21.55,21.55,0,0,0,1-8,17.9,17.9,0,0,0-2.11-7.94,20.64,20.64,0,0,0-5.34-6.14,45.48,45.48,0,0,0-6.6-4c-4.46-2.28-22.66-9.65-27-11.53s-7.71-4.62-9.4-8.55A16.49,16.49,0,0,1,141.7,24a15.89,15.89,0,0,1,9-8.68,17.18,17.18,0,0,1,6.42-1h93.74C259,14.31,273,18.12,281,30.19c3.4,5,6.1,11.93,6.1,23.05,0,7.52-1.63,16.94-4.26,21.65-3,5.31-9.86,17.35-31.95,17.35h-28.8V32.33h-4.31V96.59h33.11c15.9,0,28.92-6.41,35.79-19.75,3.65-7.11,4.72-15.58,4.73-23.6,0-11.58-2-18.22-6.48-25.09a41.14,41.14,0,0,0-34-18.15H157.15a23.45,23.45,0,0,0-7.93,1.3,20.2,20.2,0,0,0-11.49,11.05,20.68,20.68,0,0,0,.09,15.94c2.16,5.15,6.86,8.86,11.6,10.78s22.57,9.25,26.8,11.42A42.43,42.43,0,0,1,182.15,64a16.41,16.41,0,0,1,4.21,4.82c1.94,3.54,2.06,8.51.76,12.49a16.65,16.65,0,0,1-8.35,9.37,15.39,15.39,0,0,1-8.08,1.53H110.22V35.56c0-7.42-2.22-12.62-5.54-16.85a26,26,0,0,0-29-8.58C70.55,11.86,62.9,17,60.22,24.59a26.68,26.68,0,0,0-4.12-6.73,26.12,26.12,0,0,0-44.77,9.07,28.21,28.21,0,0,0-1.22,8.63v69.5h4.31V35.56a22.77,22.77,0,0,1,1-7.33,21.81,21.81,0,0,1,37.39-7.58,21.73,21.73,0,0,1,5.24,14.92v69.55h4.3V35.56C62.37,24.81,68.52,17,77.05,14.2Z"/><path class="cls-1" d="M292,22.9C278.11,2.7,256.57,1.56,250.89,1.35H157.15a36.41,36.41,0,0,0-11,1.85,28.71,28.71,0,0,0-18.64,27.22,29.17,29.17,0,0,0,2.35,11.33,27.31,27.31,0,0,0,7,9.62,30,30,0,0,0,4.54,3.33A38.09,38.09,0,0,0,145.93,57c5,2.16,26.62,9.51,31.77,14.79a7.27,7.27,0,0,1-2.61,11.12,10.69,10.69,0,0,1-4.4.7H118.87v-48A34.71,34.71,0,0,0,72.84,2,34.38,34.38,0,0,0,60.23,9.69,34.74,34.74,0,0,0,3.08,24.32,37.06,37.06,0,0,0,1.46,35.56v69.5H5.77V35.56a26.74,26.74,0,0,1,1.42-9.94,30.72,30.72,0,0,1,23-20.68c10.58-2.18,22.83,2.37,30,11A34.59,34.59,0,0,1,74.24,6a30.46,30.46,0,0,1,40.33,29.54V87.89h56.12a15.19,15.19,0,0,0,6.2-1A11.94,11.94,0,0,0,183,80c1-2.74.76-7.1-.46-9.07a10.17,10.17,0,0,0-2.21-2.72,31.44,31.44,0,0,0-6.1-3.81c-4-2.06-21.76-9.24-26.56-11.31-5.25-2.1-11.19-6.64-13.84-13a24.57,24.57,0,0,1,13.86-32.8,26.55,26.55,0,0,1,9.46-1.58h93.74c5.1.19,24.77,1.6,37.12,19.29,8.43,11.83,7.77,25.1,7.77,28.3,0,14.89-3,20.84-5.08,25.42-1.13,2.47-10.58,22-39.81,22H213.44V32.33h-4.31v72.73h41.76c29.83,0,39.93-17.76,43.58-24.25,3-5.27,5.57-12.1,5.57-27.57C300,47.63,300.62,35.56,292,22.9Z"/><path class="cls-1" d="M1.33,118.06H7.15l6.37,21.4,6.71-21.4h5.82l-9.41,28.59H10.31Z"/><path class="cls-1" d="M30.12,126a18.16,18.16,0,0,1,3.12-.24c1.17,0,2.09,0,2.74.06a19.19,19.19,0,0,1,2,.23,5.73,5.73,0,0,1,1.62.51,5.2,5.2,0,0,1,1.21.9,3.9,3.9,0,0,1,.9,1.35,10.79,10.79,0,0,1,.7,4,7.22,7.22,0,0,1-.66,3.46q-1.29,2.22-5.12,2.22H30a8.46,8.46,0,0,0,.23,2.19,1.94,1.94,0,0,0,.86,1.19,3.45,3.45,0,0,0,1.31.47c.46.07,1.7.1,3.73.1A38.29,38.29,0,0,0,42,142v3.71a13.19,13.19,0,0,1-3.53.82l-2.44.2c-.45,0-1,0-1.64,0-.86,0-1.87,0-3,0-2.58,0-4.37-.8-5.35-2.42s-1.49-4.24-1.49-7.87.4-6.21,1.19-7.73A5.64,5.64,0,0,1,30.12,126Zm6.79,7a4,4,0,0,0-.52-2.52,2.92,2.92,0,0,0-2.13-.57,15.47,15.47,0,0,0-2.21.1,2.51,2.51,0,0,0-1.17.55,2,2,0,0,0-.72,1.34,9.45,9.45,0,0,0-.16,1.7v1h5.2Q36.91,134.58,36.91,133Z"/><path class="cls-1" d="M45.35,146.65V116.06h5.43v12.07a13.4,13.4,0,0,1,4.53-2.38,10.27,10.27,0,0,1,2.07-.19q6.21,0,6.21,7.26v13.83H58.12V132.74c0-1.87-.76-2.81-2.3-2.81a7.71,7.71,0,0,0-2.66.41,9,9,0,0,0-2.34,1.39v14.92Z"/><path class="cls-1" d="M66.52,122.82v-3.44c0-.67.31-1,.94-1h4.1c.57,0,.86.34.86,1v3.44c0,.6-.29.9-.86.9h-4.1a1,1,0,0,1-.68-.23A.87.87,0,0,1,66.52,122.82Zm.2,23.83V125.91h5.47v20.74Z"/><path class="cls-1" d="M75.39,136.26a23.75,23.75,0,0,1,.49-5.26,7.45,7.45,0,0,1,1.44-3.24,5.54,5.54,0,0,1,2.13-1.58,7.52,7.52,0,0,1,2.78-.47,32.08,32.08,0,0,1,9.53,1.21v3.4q-3.72-.23-5.92-.23a22.15,22.15,0,0,0-2.66.08,3,3,0,0,0-1,.39,1.72,1.72,0,0,0-.79,1,14.94,14.94,0,0,0-.54,4.55,16.91,16.91,0,0,0,.37,4.24,2.7,2.7,0,0,0,1.09,1.7,4.89,4.89,0,0,0,2.29.41q3.17,0,6.37-.27l1-.08v3.44a9.47,9.47,0,0,1-3.52,1.09c-1.69.16-3.16.23-4.41.23H82.23a6,6,0,0,1-4.85-2.07Q75.38,142.48,75.39,136.26Z"/><path class="cls-1" d="M95,139.27V116.06h5.47v22.35a6.76,6.76,0,0,0,.43,2.89,2.43,2.43,0,0,0,1.36,1.17,19.13,19.13,0,0,0,2.62.82v3.36h-4.53a4.79,4.79,0,0,1-4-1.7C95.45,143.82,95,141.92,95,139.27Z"/><path class="cls-1" d="M111.72,126a18.16,18.16,0,0,1,3.12-.24c1.17,0,2.08,0,2.74.06a19.52,19.52,0,0,1,2,.23,5.73,5.73,0,0,1,1.62.51,5.2,5.2,0,0,1,1.21.9,3.9,3.9,0,0,1,.9,1.35,10.79,10.79,0,0,1,.7,4,7.22,7.22,0,0,1-.66,3.46q-1.29,2.22-5.12,2.22h-6.6a8.46,8.46,0,0,0,.23,2.19,1.94,1.94,0,0,0,.86,1.19,3.45,3.45,0,0,0,1.31.47c.46.07,1.7.1,3.73.1a38.29,38.29,0,0,0,5.86-.43v3.71a13.19,13.19,0,0,1-3.53.82l-2.45.2c-.44,0-1,0-1.64,0q-1.29,0-3,0c-2.58,0-4.37-.8-5.36-2.42s-1.48-4.24-1.48-7.87.4-6.21,1.19-7.73A5.64,5.64,0,0,1,111.72,126Zm6.79,7a4,4,0,0,0-.52-2.52,3,3,0,0,0-2.13-.57,15.47,15.47,0,0,0-2.21.1,2.46,2.46,0,0,0-1.17.55,2,2,0,0,0-.72,1.34,9.45,9.45,0,0,0-.16,1.7v1h5.19C117.94,134.58,118.51,134.06,118.51,133Z"/><path class="cls-1" d="M136.87,127.67V125.2q0-4.1,2.23-5.82a9.22,9.22,0,0,1,5.51-1.56h2c1,0,2.47.11,4.41.31a29.46,29.46,0,0,1,4.67.82v4.3q-4.46-.39-7.09-.39h-2.83a5.45,5.45,0,0,0-2.58.47c-.55.31-.82,1.08-.82,2.3V127a2.8,2.8,0,0,0,.66,2.19,3.93,3.93,0,0,0,2.39.54h4.53q4.46,0,6,3.56a9.84,9.84,0,0,1,.79,4v1.92q0,5.23-3.48,6.83a10.23,10.23,0,0,1-4.41.86,41,41,0,0,1-11.06-1.17v-4.3q4.31.44,7.5.43c2.14,0,3.38,0,3.73-.08a4.21,4.21,0,0,0,1.08-.31,2,2,0,0,0,1.17-2.07v-1.52c0-1.36-.43-2.19-1.29-2.5a3.64,3.64,0,0,0-1.29-.2h-4.38Q136.87,135.24,136.87,127.67Z"/><path class="cls-1" d="M159.45,136.69a27.05,27.05,0,0,1,.31-4.51,10.4,10.4,0,0,1,1-3.09,5.15,5.15,0,0,1,1.83-2,12,12,0,0,1,6.33-1.37q5.35,0,7.4,2.35t2,8.34q0,6-2,8.22t-7.44,2.22q-5.31,0-7.42-2.38C160.13,142.93,159.45,140.33,159.45,136.69Zm6.27-5.51a4.34,4.34,0,0,0-.65,1.93,29.12,29.12,0,0,0-.15,3.34,21.48,21.48,0,0,0,.19,3.29,3.45,3.45,0,0,0,.73,1.77,2.16,2.16,0,0,0,1.19.76,7.75,7.75,0,0,0,1.79.16,12,12,0,0,0,1.7-.08,2.85,2.85,0,0,0,1.1-.39,1.79,1.79,0,0,0,.76-1,11.52,11.52,0,0,0,.51-3.81c0-1.6,0-2.78-.1-3.52a9.92,9.92,0,0,0-.33-1.87,1.86,1.86,0,0,0-.75-1.08,4.63,4.63,0,0,0-2.51-.6,8.81,8.81,0,0,0-2.31.17A2.11,2.11,0,0,0,165.72,131.18Z"/><path class="cls-1" d="M181.64,139.27V116.06h5.47v22.35a6.76,6.76,0,0,0,.43,2.89,2.43,2.43,0,0,0,1.36,1.17,18.67,18.67,0,0,0,2.62.82v3.36H187a4.83,4.83,0,0,1-4-1.7C182.09,143.82,181.64,141.92,181.64,139.27Z"/><path class="cls-1" d="M199,125.91v13.9c0,1.85.77,2.78,2.3,2.78a7.23,7.23,0,0,0,3.44-.75,12.56,12.56,0,0,0,1.56-1.05V125.91h5.47v20.74h-4.41l-1.06-2.19c-.23.13-.56.33-1,.59l-1,.6a9.67,9.67,0,0,1-.92.51,5.86,5.86,0,0,1-1.07.45,8.68,8.68,0,0,1-2.66.39q-6.16,0-6.17-7.3V125.91Z"/><path class="cls-1" d="M214.14,130.05V127l3.35-1.13.9-5.78H223v5.78h4.65v4.18H223v8.32a7.08,7.08,0,0,0,.43,2.93,2.47,2.47,0,0,0,1.33,1.17,18.67,18.67,0,0,0,2.62.82v3.36h-4.77q-5.07,0-5.08-7.42v-9.18Z"/><path class="cls-1" d="M229.92,122.82v-3.44c0-.67.31-1,.93-1H235c.57,0,.85.34.85,1v3.44c0,.6-.28.9-.85.9h-4.11a1,1,0,0,1-.68-.23A.87.87,0,0,1,229.92,122.82Zm.19,23.83V125.91h5.47v20.74Z"/><path class="cls-1" d="M238.78,136.69a26.93,26.93,0,0,1,.32-4.51,10.4,10.4,0,0,1,1-3.09,5.17,5.17,0,0,1,1.84-2,11.9,11.9,0,0,1,6.33-1.37q5.34,0,7.4,2.35c1.36,1.56,2.05,4.34,2.05,8.34s-.67,6.73-2,8.22-3.83,2.22-7.44,2.22-6-.79-7.43-2.38S238.78,140.33,238.78,136.69Zm6.27-5.51a4.34,4.34,0,0,0-.64,1.93,26.66,26.66,0,0,0-.16,3.34,21.25,21.25,0,0,0,.2,3.29,3.54,3.54,0,0,0,.72,1.77,2.2,2.2,0,0,0,1.19.76,7.79,7.79,0,0,0,1.8.16,12.17,12.17,0,0,0,1.7-.08A2.87,2.87,0,0,0,251,142a1.75,1.75,0,0,0,.76-1,11.52,11.52,0,0,0,.51-3.81c0-1.6,0-2.78-.1-3.52a8.54,8.54,0,0,0-.33-1.87,1.84,1.84,0,0,0-.74-1.08,4.69,4.69,0,0,0-2.52-.6,8.85,8.85,0,0,0-2.31.17A2.18,2.18,0,0,0,245.05,131.18Z"/><path class="cls-1" d="M273,125.56q6.21,0,6.21,7.26v13.83h-5.47V132.74c0-1.87-.77-2.81-2.3-2.81a7.71,7.71,0,0,0-2.66.41,9,9,0,0,0-2.34,1.39v14.92H261V125.91h4.37l1.1,2.22a12.68,12.68,0,0,1,4.53-2.38A9.66,9.66,0,0,1,273,125.56Z"/><path class="cls-1" d="M287.22,125.71q9.25,0,11.09,1.06v3.43H288.9a1.88,1.88,0,0,0-1.29.32,1.58,1.58,0,0,0-.31,1.13v.94q0,.9.39,1.11a2.63,2.63,0,0,0,1.21.22h4.92a6,6,0,0,1,3.16.74,4.83,4.83,0,0,1,2.35,4.61v2.15c0,2-.48,3.34-1.45,4.17a5.31,5.31,0,0,1-3.63,1.25q-9.84,0-11.56-1.13v-3.4h9.8a1.19,1.19,0,0,0,1.37-1.32v-1a1.5,1.5,0,0,0-.29-1,1.51,1.51,0,0,0-1.08-.31h-4.84q-5.82,0-5.82-5.59V131.3Q281.83,125.7,287.22,125.71Z"/></svg>