<?xml version="1.0" encoding="UTF-8"?>
<svg width="536px" height="210px" viewBox="0 0 536 210" version="1.1" xmlns="http://www.w3.org/2000/svg" xmlns:xlink="http://www.w3.org/1999/xlink">
    <!-- Generator: Sketch 48.2 (47327) - http://www.bohemiancoding.com/sketch -->
    <title>Group 4</title>
    <desc>Created with Sketch.</desc>
    <defs></defs>
    <g id="Artboard-3" stroke="none" stroke-width="1" fill="none" fill-rule="evenodd" transform="translate(-296.000000, -197.000000)">
        <g id="Group-4" transform="translate(296.000000, 197.000000)" fill="#FFFFFF">
            <path d="M59.3401259,185.68 L48.2538145,185.627586 C48.2538145,184.526897 48.2538145,183.688276 47.4656881,182.744828 C46.5724782,181.644138 45.1538506,181.53931 43.6301396,181.382069 C41.4759274,181.277241 39.2691735,181.172414 37.0624196,181.172414 C34.7505821,181.172414 32.4912865,181.224828 30.1269072,181.329655 C29.5489479,181.329655 28.9184468,181.382069 28.3404874,181.434483 C27.3947357,181.53931 24.7676477,181.853793 23.9269796,184.736552 C23.611729,185.837241 23.5066455,188.038621 23.5066455,190.764138 L23.5066455,193.489655 C23.5591872,195.533793 23.611729,197.735172 25.0828983,199.045517 C26.7642346,200.565517 29.4964061,200.617931 29.969282,200.670345 L43.5775978,200.670345 C43.7877649,200.617931 46.4148529,200.565517 47.5707716,199.202759 C48.358898,198.311724 48.4114398,196.896552 48.5165233,195.533793 L59.8130017,195.533793 C59.8130017,196.634483 59.76046,197.735172 59.7079182,198.888276 C59.6028347,202.085517 59.2875841,205.125517 56.6604961,207.222069 C54.6113675,208.89931 52.29953,209.213793 49.8300673,209.58069 C45.8368935,209.842759 41.8437198,210 37.850546,210 C33.4895799,210 29.1286138,209.895172 24.7676477,209.737931 C21.3524333,209.213793 17.9372189,208.689655 15.5728397,206.488276 C13.2084605,204.286897 12.7881264,201.875862 12.4203341,198.835862 C12.210167,196.267586 12,193.646897 12,191.026207 C12,188.30069 12.210167,185.627586 12.3677923,182.902069 C12.6830429,180.438621 13.0508352,178.656552 14.627088,176.664828 C17.4643431,173.310345 21.9303927,172.786207 23.1388531,172.576552 C27.3947357,172.262069 31.7031601,172 36.0115844,172 C40.3725505,172 44.7335166,172.209655 49.0944827,172.366897 C51.7215707,172.786207 54.3486587,173.205517 56.4503291,175.144828 C59.2350424,177.713103 59.2875841,182.273103 59.3401259,185.68 Z M88.7710174,172.524138 L100.172579,172.524138 L100.172579,194.118621 C100.225121,195.691034 100.277663,197.473103 101.223415,198.888276 C102.484417,200.670345 104.901338,200.932414 108.947053,200.88 L119.875739,200.88 C122.29266,200.565517 123.18587,200.251034 123.973997,199.569655 C125.182457,198.416552 125.392624,196.424828 125.497708,194.852414 L125.497708,172.524138 L136.951811,172.524138 L136.951811,197.053793 C136.89927,197.944828 136.846728,198.835862 136.689103,199.726897 C136.478936,201.194483 135.795893,205.230345 131.907802,207.641379 C129.175631,209.318621 126.443459,209.58069 123.396037,209.842759 C119.875739,209.895172 116.407983,210 112.887685,210 C108.84197,210 104.796254,209.842759 100.750539,209.633103 C100.014954,209.528276 99.2268277,209.423448 98.491243,209.318621 C95.3387374,208.742069 92.4489406,207.536552 90.6625208,204.706207 C89.296435,202.504828 89.0337262,200.355862 88.7710174,197.892414 L88.7710174,172.524138 Z M166.277619,197.368276 L177.889348,197.42069 C177.889348,198.25931 177.889348,198.94069 178.152057,199.569655 C178.572391,200.775172 179.675768,201.246897 182.092689,201.456552 C184.457068,201.561379 186.768906,201.666207 189.133285,201.718621 C191.65529,201.771034 194.177294,201.666207 196.75184,201.613793 C197.119633,201.613793 198.748427,201.771034 199.904346,201.29931 C201.060265,200.88 202.058558,199.726897 202.058558,198.468966 C202.058558,198.154483 202.006016,197.525517 201.533141,196.844138 C200.639931,195.586207 199.484012,195.638621 196.856924,195.271724 C191.392581,195.166897 185.928238,195.114483 180.516436,194.8 C178.782558,194.695172 177.04868,194.537931 175.314802,194.433103 C174.789385,194.328276 174.211425,194.275862 173.686008,194.171034 C172.950423,194.066207 170.375877,193.646897 168.589457,191.707586 C167.433538,190.449655 166.382703,188.195862 166.382703,184.422069 C166.382703,184.16 166.382703,180.124138 167.328455,177.765517 C167.696247,176.874483 168.221665,176.088276 168.852166,175.406897 C171.006378,173.10069 173.843633,172.733793 176.943597,172.366897 C180.989312,172.209655 185.035028,172.052414 189.080743,172.052414 C193.546793,172.052414 198.012843,172.314483 202.478892,172.524138 L204.528021,172.838621 C205.316147,172.943448 207.890694,173.415172 209.88728,175.249655 C212.461827,177.608276 212.461827,180.910345 212.356743,184.16 L201.112806,184.107586 C200.429764,181.277241 199.904346,180.910345 196.909466,180.595862 C194.177294,180.438621 191.392581,180.333793 188.660409,180.333793 C186.506197,180.333793 184.404527,180.438621 182.250315,180.491034 C180.831687,180.543448 179.518143,180.595862 178.624933,181.748966 C178.467308,181.958621 177.994432,182.64 177.994432,183.426207 C177.994432,184.212414 178.414766,184.841379 178.624933,185.051034 C179.623227,186.308966 180.884229,186.361379 182.302856,186.466207 L204.580563,187.252414 C207.627985,187.566897 208.783903,187.986207 210.097447,188.929655 C211.988951,190.292414 213.670287,192.703448 213.670287,198.102069 C213.670287,202.295172 212.934702,204.286897 211.778784,205.911724 C211.305908,206.54069 210.885574,207.012414 210.255073,207.484138 C208.521195,208.742069 206.261899,209.108966 203.950061,209.475862 C199.378928,209.737931 194.860337,209.947586 190.289204,209.947586 C185.350278,209.947586 180.411353,209.633103 175.419886,209.371034 C172.950423,209.004138 170.16571,208.532414 168.326748,206.54069 C166.225078,204.286897 166.277619,200.146207 166.277619,197.368276 Z M240.211382,172.524138 L284.976961,172.524138 L284.976961,181.067586 L268.268682,181.067586 L268.268682,209.528276 L256.604411,209.528276 L256.604411,181.12 L240.211382,181.12 L240.211382,172.524138 Z M310.677388,193.751724 L311.04518,182.902069 C311.097722,182.325517 311.202806,181.748966 311.307889,181.172414 C311.885849,178.289655 313.251934,175.826207 315.879022,174.306207 C317.823067,173.153103 319.609487,172.838621 321.816241,172.524138 C326.334833,172.262069 330.853424,172.052414 335.424557,172.052414 C340.783817,172.052414 346.143076,172.262069 351.554877,172.524138 C352.132837,172.576552 352.710796,172.681379 353.288756,172.786207 C354.812467,173.048276 358.648015,173.782069 360.907311,177.765517 C362.220855,180.176552 362.431022,182.535172 362.588647,185.208276 C362.693731,187.881379 362.798814,190.502069 362.693731,193.175172 C362.641189,194.904828 362.483564,196.634483 362.37848,198.416552 C362.010688,201.142069 361.642895,203.291034 359.803934,205.544828 C356.966679,209.004138 352.605713,209.475862 348.507455,209.790345 C344.829532,209.842759 341.099067,209.947586 337.368602,209.947586 C333.11272,209.947586 328.909379,209.842759 324.653496,209.737931 C321.343365,209.528276 318.138318,209.318621 315.248521,207.326897 C310.782472,204.234483 310.677388,198.468966 310.677388,193.751724 Z M329.382255,200.775172 L344.514282,200.775172 C346.931203,200.565517 349.137956,200.355862 350.293875,198.364138 C350.766751,197.577931 350.976918,196.791724 351.187085,195.009655 L351.187085,186.990345 C351.134543,186.151724 351.082002,185.522759 350.819293,184.736552 C349.926083,181.801379 347.771871,181.53931 344.829532,181.329655 L328.961921,181.329655 C326.387374,181.486897 325.389081,181.801379 324.338246,182.587586 C323.602661,183.111724 323.28741,183.635862 323.129785,183.950345 C322.709451,184.736552 322.551826,185.732414 322.499284,185.994483 C322.341659,187.304828 322.289117,189.296552 322.236575,192.17931 C322.341659,195.324138 322.551826,197.577931 323.392494,198.783448 C324.338246,200.093793 326.229749,200.513103 329.382255,200.775172 Z M391.599205,172.524138 L409.936279,172.524138 L423.386969,196.791724 L436.890202,172.524138 L455.017109,172.524138 L455.017109,209.528276 L443.983339,209.528276 L443.983339,181.53931 L427.747935,209.528276 L418.658211,209.528276 L402.475349,181.382069 L402.475349,209.528276 L391.599205,209.528276 L391.599205,172.524138 Z M483.607332,197.368276 L495.219061,197.42069 C495.219061,198.25931 495.219061,198.94069 495.48177,199.569655 C495.902104,200.775172 497.005481,201.246897 499.422402,201.456552 C501.786781,201.561379 504.098619,201.666207 506.462998,201.718621 C508.985003,201.771034 511.507007,201.666207 514.081553,201.613793 C514.449346,201.613793 516.07814,201.771034 517.234059,201.29931 C518.389978,200.88 519.388271,199.726897 519.388271,198.468966 C519.388271,198.154483 519.335729,197.525517 518.862853,196.844138 C517.969643,195.586207 516.813725,195.638621 514.186637,195.271724 C508.722294,195.166897 503.257951,195.114483 497.846149,194.8 C496.112271,194.695172 494.378393,194.537931 492.644515,194.433103 C492.119097,194.328276 491.541138,194.275862 491.015721,194.171034 C490.280136,194.066207 487.70559,193.646897 485.91917,191.707586 C484.763251,190.449655 483.712416,188.195862 483.712416,184.422069 C483.712416,184.16 483.712416,180.124138 484.658168,177.765517 C485.02596,176.874483 485.551377,176.088276 486.181879,175.406897 C488.336091,173.10069 491.173346,172.733793 494.27331,172.366897 C498.319025,172.209655 502.364741,172.052414 506.410456,172.052414 C510.876506,172.052414 515.342555,172.314483 519.808605,172.524138 L521.857734,172.838621 C522.64586,172.943448 525.220406,173.415172 527.216993,175.249655 C529.79154,177.608276 529.79154,180.910345 529.686456,184.16 L518.442519,184.107586 C517.759476,181.277241 517.234059,180.910345 514.239179,180.595862 C511.507007,180.438621 508.722294,180.333793 505.990122,180.333793 C503.83591,180.333793 501.73424,180.438621 499.580027,180.491034 C498.1614,180.543448 496.847856,180.595862 495.954646,181.748966 C495.797021,181.958621 495.324145,182.64 495.324145,183.426207 C495.324145,184.212414 495.744479,184.841379 495.954646,185.051034 C496.952939,186.308966 498.213942,186.361379 499.632569,186.466207 L521.910275,187.252414 C524.957698,187.566897 526.113616,187.986207 527.42716,188.929655 C529.318664,190.292414 531,192.703448 531,198.102069 C531,202.295172 530.264415,204.286897 529.108497,205.911724 C528.635621,206.54069 528.215287,207.012414 527.584786,207.484138 C525.850908,208.742069 523.591612,209.108966 521.279774,209.475862 C516.708641,209.737931 512.19005,209.947586 507.618917,209.947586 C502.679991,209.947586 497.741066,209.633103 492.749599,209.371034 C490.280136,209.004138 487.495423,208.532414 485.656461,206.54069 C483.554791,204.286897 483.607332,200.146207 483.607332,197.368276 Z" id="CUSTOMS-Copy-2"></path>
            <path d="M269.69599,0 C240.439945,0 217.026504,19.5157328 217.026504,47.7388028 C217.026504,75.9601507 236.827684,88.4941697 253.254093,88.4941697 L305.455482,88.4941697 C310.855804,88.4941697 311.97958,93.4471566 311.97958,96.1509777 C311.97958,98.8530766 310.63036,105.381857 304.555428,105.381857 C300.006974,105.381857 230.56517,105.25786 195.936338,105.192418 L200.372931,0 L147.271489,0 L105.192691,86.0176763 L95.517545,0 L40.3888306,0 L0,144 L50.4030027,144 L66.4903855,65.7510734 L79.6538848,144 L111.832092,144 L154.022751,66.8773785 L143.220387,144 L170.898326,144 L194.296278,144 L298.091563,144 C333.945707,144 349.408387,122.271267 349.408387,94.6492376 C349.408387,67.0289302 326.607602,54.7170723 309.205418,54.7170723 L260.153357,54.7170723 C254.901036,54.7170723 253.402094,49.0132153 253.402094,46.3128386 C253.402094,43.6090175 256.102255,37.9051606 262.40263,37.9051606 L410.254077,37.9051606 L410.257519,37.8827722 L425.10238,37.8672726 L379.268483,52.357687 L353.404419,144 L387.014451,144 L403.446023,144 L445.951615,144 C518.086696,144 525.102984,122.086994 534.151706,68.7958859 C535.394228,61.4800694 535.982791,54.9134007 536,49.0235484 L536,48.5637266 C535.905348,8.43006638 508.948484,0 480.36877,0 L269.69599,0 Z M428.327429,37.8431621 L466.721685,37.8431621 L473.602019,37.8431621 C485.280344,37.8431621 490.155778,46.6279974 488.550137,60.3089876 C486.409283,78.5640854 480.232815,106.156838 460.42131,106.156838 L449.159454,106.156838 L412.315768,106.156838 L428.327429,37.8431621 Z" id="Fill-1"></path>
        </g>
    </g>
</svg>