<?xml version="1.0" encoding="UTF-8"?>
<svg width="357px" height="177px" viewBox="0 0 357 177" version="1.1" xmlns="http://www.w3.org/2000/svg" xmlns:xlink="http://www.w3.org/1999/xlink">
    <!-- Generator: Sketch 48.2 (47327) - http://www.bohemiancoding.com/sketch -->
    <title>Group</title>
    <desc>Created with Sketch.</desc>
    <defs></defs>
    <g id="Artboard-2" stroke="none" stroke-width="1" fill="none" fill-rule="evenodd" transform="translate(-149.000000, -493.000000)">
        <g id="Group" transform="translate(148.000000, 493.000000)" fill="#FFFFFF">
            <g id="Group-Copy-6" fill-rule="nonzero">
                <g id="msd-logo-main-copy" transform="translate(0.673151, 0.638352)">
                    <path d="M235.004629,74.4543045 C232.584384,70.4901447 229.515589,66.9566154 225.925094,63.9997784 C222.925517,61.7865853 219.725979,59.8554863 216.36769,58.2313538 C210.525727,55.2579391 188.233081,46.2782267 183.514112,44.2563047 C179.667257,42.6030861 178.484528,41.175847 177.612415,39.4036918 C177.155378,38.30312 176.927766,37.1215608 176.943397,35.9307434 C176.934492,34.7659301 177.153615,33.6105463 177.588521,32.529157 C178.512801,30.3740594 180.282684,28.689399 182.486691,27.8668427 C183.790913,27.4712562 185.149574,27.2826115 186.512748,27.3078408 L298.501634,27.3078408 C309.714001,27.265114 320.175188,32.9140648 326.253948,42.2938509 C331.319372,49.2873224 331.582201,58.0053743 331.582201,63.3218398 C331.582201,72.8367669 329.67072,81.376414 326.265894,86.6334112 C318.03458,99.3596262 304.164397,99.4190945 298.501634,99.4190945 L274.464762,99.4190945 L274.464762,38.4521991 L269.315711,38.4521991 L269.315711,104.533368 L298.537475,104.533368 C317.723964,104.533368 325.632716,97.206874 331.116277,88.4293537 C334.533049,82.9701643 336.611785,73.6217484 336.611785,63.3218398 C336.611785,56.970626 336.384796,47.8600833 330.315845,39.0944567 C319.83854,23.359146 303.148922,22.1816738 298.537475,22.1816738 L186.584428,22.1816738 C184.591487,22.1861376 182.610383,22.4867931 180.706625,23.0736982 C177.180889,24.3979313 174.353283,27.1012283 172.8815,30.5548096 C172.172421,32.2750995 171.815015,34.1188822 171.830185,35.9783181 C171.829231,37.8526104 172.20285,39.7083624 172.929287,41.4375075 C174.374844,44.6606891 177.027024,47.0869955 181.483164,48.9424063 C186.453014,51.0713712 208.470885,59.9440407 214.050019,62.7866252 C217.102061,64.2840624 220.019755,66.0388353 222.771151,68.0317287 C225.256076,70.2915239 228.971517,73.9785582 230.500702,76.9162919 C232.469243,80.5004052 233.550488,84.5003575 233.654645,88.5839713 C233.882161,92.4630466 233.367285,96.3498356 232.137407,100.037565 C229.556469,107.586572 224.019867,113.776306 216.785826,117.200115 C212.652249,119.150675 206.989487,119.781038 202.724495,119.781038 L120.148521,119.781038 L120.148521,42.2938509 C120.272979,37.3623288 118.710089,32.5351309 115.716274,28.6042496 C110.495542,21.6583528 100.758936,19.0893225 92.5515153,21.7653957 C83.9976384,24.6198739 78.5021308,33.6590546 78.5021308,42.2938509 L78.5021308,125.026142 L83.6272889,125.026142 L83.6272889,42.2938509 C83.6272889,34.5748663 88.0475885,28.6637179 94.2001676,26.6061149 C100.522409,24.4403772 107.52847,26.5089674 111.642431,31.7560692 C113.792521,34.8557959 114.957894,38.5269792 114.987522,42.2938509 L114.987522,124.95478 L202.855909,124.95478 C208.401533,124.966616 213.889284,123.832634 218.972083,121.624556 C227.46772,117.699905 233.984267,110.490524 237.011684,101.666996 C238.291031,97.3364126 238.891452,92.8352161 238.79175,88.3223108 C238.611289,83.472137 237.315692,78.7278068 235.004629,74.4543045 Z" id="Shape"></path>
                    <path d="M37.9428957,21.0398825 C30.5383107,22.5926741 24.5327007,27.9682571 22.1970718,35.1338683 C21.5032287,37.448158 21.1727847,39.8552946 21.2174379,42.2700636 L21.2174379,124.930993 L26.3664895,124.930993 L26.3664895,42.2938509 C26.3332481,40.3972213 26.5787627,38.505945 27.0952416,36.680044 C28.8653534,31.287645 33.3850832,27.2411391 38.9583699,26.0590066 C44.5635068,24.9417827 50.3377858,26.9246912 54.0590689,31.2446419 C55.8510823,33.3855005 57.8461904,36.4064898 57.8461904,42.2938509 L57.8461904,125.026142 L62.9713486,125.026142 L62.9713486,42.2938509 C62.9713486,34.7056966 60.3550091,30.7451082 57.965658,27.926311 C53.0326273,22.1960624 45.3768519,19.5630116 37.9428957,21.0398825 Z" id="Shape"></path>
                    <path d="M90.8550761,16.8889956 C95.9753612,15.1440826 101.511876,15.0153191 106.708421,16.5202922 C111.941512,17.9897132 116.55346,21.111899 119.849852,25.416749 C123.657878,30.2094793 125.619678,36.1994896 125.3812,42.3057446 L125.3812,114.857064 L202.772282,114.857064 C206.858798,115.043112 210.928598,114.226235 214.623464,112.478332 C220.583104,109.692832 225.137562,104.599898 227.227291,98.3843462 C228.22321,95.315766 228.628527,92.0876413 228.421966,88.8694191 C228.3285,85.5695714 227.465517,82.3365706 225.901201,79.4258539 C224.282511,76.5942766 222.11385,74.1118047 219.521633,72.1231474 C217.033488,70.3177833 214.395708,68.7262336 211.636775,67.3656838 C206.308522,64.6539296 184.565427,55.888303 179.380535,53.6522952 C174.195643,51.4162873 170.169586,48.1574248 168.150585,43.4832168 C166.152019,38.7065539 166.130548,33.337134 168.090851,28.5447813 C170.107146,23.7853094 173.992378,20.0548727 178.842931,18.2210854 C181.300274,17.3425568 183.903426,16.9388836 186.512748,17.0317195 L298.501634,17.0317195 C308.226294,17.0198258 324.951751,21.5513099 334.509156,35.9069561 C338.571053,41.8537856 341.796677,50.0960912 341.796677,63.3218398 C341.796677,72.2658713 339.849355,83.469698 336.707359,89.0716113 C333.123332,95.3871441 324.927858,109.707109 298.537475,109.707109 L264.130819,109.707109 L264.130819,38.4521991 L258.981767,38.4521991 L258.981767,114.880851 L298.537475,114.880851 C317.532816,114.880851 333.087492,107.257016 341.294913,91.3908748 C345.655479,82.9344833 346.933782,72.8605542 346.945728,63.3218398 C346.945728,49.5489829 344.556377,41.6515934 339.204231,33.4806497 C330.096972,20.0255264 314.882513,11.9397869 298.585262,11.8936589 L186.548588,11.8936589 C183.324824,11.8625244 180.119851,12.3855947 177.074811,13.4398345 C170.882939,15.7619721 165.920365,20.5132967 163.347989,26.5823276 C160.837673,32.6622265 160.876394,39.489529 163.45551,45.5408198 C166.036009,51.6660541 171.650984,56.0786016 177.313746,58.3621841 C182.976508,60.6457666 204.277573,69.3638185 209.331051,71.9447425 C211.802312,73.1427753 214.171599,74.5389365 216.415477,76.1194168 C218.453667,77.6831977 220.162689,79.6311491 221.445061,81.8521604 C223.762732,86.0625156 223.906093,91.9736641 222.353015,96.7073403 C220.615319,101.575356 217.035536,105.574577 212.377474,107.851699 C209.385178,109.318741 206.048387,109.947775 202.724495,109.671428 L130.482464,109.671428 L130.482464,42.2938509 C130.482464,33.4687561 127.830285,27.2840535 123.863962,22.2530357 C115.694737,11.8269334 101.770668,7.72563886 89.2183705,12.0482764 C83.0896849,14.1058794 73.9504169,20.2192201 70.7486864,29.2465072 C69.51559,26.3502277 67.8567632,23.6525853 65.8266231,21.2420747 C58.4663305,12.65549 47.0067892,8.71930789 35.8939807,10.9606571 C24.7811721,13.2020063 15.7640473,21.2681398 12.3409985,32.0296233 C11.32399,35.3552031 10.832288,38.8179316 10.8834943,42.2938509 L10.8834943,124.95478 L16.032546,124.95478 L16.032546,42.2938509 C15.9507531,39.3424288 16.3543032,36.3975529 17.2272215,33.575799 C20.0817388,24.5849342 27.6120728,17.8442616 36.8946355,15.97079 C46.1771983,14.0973183 55.7498693,17.3861428 61.8961406,24.5604056 C66.1473981,29.4828711 68.3822111,35.8178363 68.1562405,42.3057446 L68.1562405,125.026142 L73.2933454,125.026142 L73.2933454,42.2938509 C73.3172389,29.5081677 80.6644936,20.2192201 90.8550761,16.8889956 Z" id="Shape"></path>
                    <path d="M347.650587,27.2364788 C331.056543,3.2112879 305.323232,1.85541078 298.537475,1.60564395 L186.548588,1.60564395 C182.080593,1.6627533 177.648113,2.40490271 173.407157,3.80597084 C159.875603,8.85050059 150.970694,21.7965469 151.138405,36.1805103 C151.160978,40.8139234 152.115586,45.3958951 153.945892,49.6560258 C155.85501,54.0354144 158.710331,57.9420014 162.308621,61.0977256 C163.987852,62.5842769 165.80379,63.9103114 167.732448,65.058314 C169.473247,66.0890499 171.281228,67.0029294 173.144328,67.7938556 C179.117706,70.3628859 204.946592,79.1047252 211.099171,85.384577 C212.758332,87.4563636 213.37175,90.1711182 212.763593,92.7506774 C212.155436,95.3302366 210.39285,97.4897927 207.981068,98.6103257 C206.307058,99.2523114 204.515973,99.5359903 202.724495,99.4428818 L140.816408,99.4428818 L140.816408,42.3533192 C141.12971,28.8403506 134.778612,16.0305893 123.813637,8.05981224 C112.848663,0.0890351869 98.6588317,-2.03303663 85.825492,2.37873177 C80.1976034,4.30492477 75.0573822,7.42567182 70.7606332,11.5249554 C60.4024354,1.65289523 45.6592563,-2.19661287 31.7676846,1.34372718 C17.8761128,4.88406723 6.80434263,15.3126508 2.48492516,28.9253784 C1.15376989,33.2560867 0.500982997,37.7651696 0.549550756,42.2938509 L0.547027368,124.95478 L5.6986024,124.95478 L5.6986024,42.2938509 C5.50915637,38.2817939 6.08478245,34.2703197 7.39504169,30.471554 C11.4380135,17.9456382 21.9332677,8.55097627 34.8725795,5.87546748 C47.5122469,3.28264985 62.1470224,8.69426463 70.7128462,18.9584922 C75.2180602,13.6727763 80.991843,9.60613368 87.4980377,7.13619532 C98.7598618,3.29227079 111.1982,5.17576041 120.802721,12.1793951 C130.407243,19.1830299 135.963217,30.4210263 135.679303,42.2700636 L135.679303,104.533368 L202.724495,104.533368 C205.249755,104.654909 207.772663,104.249797 210.131484,103.344002 C213.56741,101.694031 216.196337,98.7426727 217.430951,95.149271 C218.625627,91.8904084 218.338905,86.7047732 216.8814,84.3617224 C216.195993,83.1393853 215.302654,82.0447775 214.241168,81.1266472 C211.994101,79.3436056 209.548933,77.8231653 206.953647,76.5951631 C202.174944,74.1450694 180.957507,65.6054223 175.223064,63.1434349 C168.951017,60.6457666 161.854644,55.2460455 158.688754,47.6816784 C155.47865,40.3425315 155.433113,32.0137063 158.562777,24.6402046 C161.69244,17.2667028 167.723288,11.4941092 175.246957,8.67047732 C178.868341,7.36623739 182.698026,6.72944992 186.548588,6.79127922 L298.537475,6.79127922 C304.63032,7.01725873 328.129588,8.69426463 342.883831,29.7341472 C352.954946,43.8043456 352.16646,59.5872309 352.16646,63.3932018 C352.16646,81.1028598 348.582434,88.1795869 346.097509,93.6268826 C344.747525,96.5646164 333.457841,119.792932 298.537475,119.792932 L253.796875,119.792932 L253.796875,38.4521991 L248.647824,38.4521991 L248.647824,124.95478 L298.537475,124.95478 C334.174647,124.95478 346.24087,103.831642 350.601435,96.1126573 C354.185462,89.8446991 357.255778,81.7213301 357.255778,63.3218398 C357.207991,56.6494972 357.94869,42.2938509 347.650587,27.2364788 Z" id="Shape"></path>
                </g>
            </g>
            <path d="M1.927,176 L4.305,145.988 L10.906,145.988 L16.974,168.128 L22.96,145.988 L29.52,145.988 L32.144,176 L27.47,176 L25.543,154.352 L19.639,176 L14.432,176 L8.364,154.352 L6.642,176 L1.927,176 Z M36.8710587,173.745 C36.1057216,172.842995 35.5590604,171.729173 35.2310587,170.4035 C34.9030571,169.077827 34.7390587,167.171346 34.7390587,164.684 C34.7390587,162.196654 35.0602222,160.133008 35.7025587,158.493 C36.3448953,156.852992 37.3562185,155.69817 38.7365587,155.0285 C40.116899,154.35883 42.0643795,154.024 44.5790587,154.024 C48.2964106,154.024 50.858885,154.843992 52.2665587,156.484 C53.6742324,158.124008 54.3780587,161.041812 54.3780587,165.2375 C54.3780587,169.433188 53.6742324,172.309992 52.2665587,173.868 C50.858885,175.426008 48.2964106,176.205 44.5790587,176.205 C42.6930493,176.205 41.1282316,176.013669 39.8845587,175.631 C38.6408858,175.248331 37.6363959,174.619671 36.8710587,173.745 Z M39.9460587,160.543 C39.7820579,161.089669 39.6658924,161.752496 39.5975587,162.5315 C39.5292251,163.310504 39.4950587,164.246661 39.4950587,165.34 C39.4950587,166.433339 39.5360583,167.348996 39.6180587,168.087 C39.7000591,168.825004 39.8435577,169.439998 40.0485587,169.932 C40.2535598,170.424002 40.4790575,170.820332 40.7250587,171.121 C40.97106,171.421668 41.2990567,171.653999 41.7090587,171.818 C42.3923955,172.036668 43.2465536,172.146 44.2715587,172.146 C45.2965639,172.146 46.0413897,172.111834 46.5060587,172.0435 C46.9707277,171.975166 47.4353897,171.824834 47.9000587,171.5925 C48.3647277,171.360166 48.706391,170.998002 48.9250587,170.506 C49.3897277,169.412661 49.6220587,168.005009 49.6220587,166.283 C49.6220587,164.560991 49.5878924,163.310504 49.5195587,162.5315 C49.4512251,161.752496 49.3282263,161.082836 49.1505587,160.5225 C48.9728912,159.962164 48.7747265,159.524835 48.5560587,159.2105 C48.337391,158.896165 48.0230608,158.657001 47.6130587,158.493 C46.9570554,158.219665 46.1097306,158.076167 45.0710587,158.0625 C44.0323869,158.048833 43.2943942,158.069333 42.8570587,158.124 C42.4197232,158.178667 41.9892275,158.294832 41.5655587,158.4725 C41.1418899,158.650168 40.8138932,158.896165 40.5815587,159.2105 C40.3492242,159.524835 40.137393,159.968997 39.9460587,160.543 Z M58.9411175,173.745 C58.1757803,172.842995 57.6291191,171.729173 57.3011175,170.4035 C56.9731158,169.077827 56.8091175,167.171346 56.8091175,164.684 C56.8091175,162.196654 57.1302809,160.133008 57.7726175,158.493 C58.414954,156.852992 59.4262772,155.69817 60.8066175,155.0285 C62.1869577,154.35883 64.1344382,154.024 66.6491175,154.024 C70.3664694,154.024 72.9289437,154.843992 74.3366175,156.484 C75.7442912,158.124008 76.4481175,161.041812 76.4481175,165.2375 C76.4481175,169.433188 75.7442912,172.309992 74.3366175,173.868 C72.9289437,175.426008 70.3664694,176.205 66.6491175,176.205 C64.763108,176.205 63.1982903,176.013669 61.9546175,175.631 C60.7109446,175.248331 59.7064546,174.619671 58.9411175,173.745 Z M62.0161175,160.543 C61.8521166,161.089669 61.7359511,161.752496 61.6676175,162.5315 C61.5992838,163.310504 61.5651175,164.246661 61.5651175,165.34 C61.5651175,166.433339 61.606117,167.348996 61.6881175,168.087 C61.7701179,168.825004 61.9136164,169.439998 62.1186175,169.932 C62.3236185,170.424002 62.5491162,170.820332 62.7951175,171.121 C63.0411187,171.421668 63.3691154,171.653999 63.7791175,171.818 C64.4624542,172.036668 65.3166123,172.146 66.3416175,172.146 C67.3666226,172.146 68.1114485,172.111834 68.5761175,172.0435 C69.0407864,171.975166 69.5054485,171.824834 69.9701175,171.5925 C70.4347864,171.360166 70.7764497,170.998002 70.9951175,170.506 C71.4597864,169.412661 71.6921175,168.005009 71.6921175,166.283 C71.6921175,164.560991 71.6579511,163.310504 71.5896175,162.5315 C71.5212838,161.752496 71.398285,161.082836 71.2206175,160.5225 C71.0429499,159.962164 70.8447852,159.524835 70.6261175,159.2105 C70.4074497,158.896165 70.0931195,158.657001 69.6831175,158.493 C69.0271142,158.219665 68.1797893,158.076167 67.1411175,158.0625 C66.1024456,158.048833 65.364453,158.069333 64.9271175,158.124 C64.4897819,158.178667 64.0592862,158.294832 63.6356175,158.4725 C63.2119487,158.650168 62.8839519,158.896165 62.6516175,159.2105 C62.419283,159.524835 62.2074517,159.968997 62.0161175,160.543 Z M86.4231762,155.5 C86.9698456,155.144665 87.6941717,154.803002 88.5961762,154.475 C89.4981807,154.146998 90.5095039,153.983 91.6301762,153.983 C92.7508484,153.983 93.5298407,154.078666 93.9671762,154.27 L93.9671762,158.903 C93.256506,158.793666 92.2178497,158.739 90.8511762,158.739 C89.4845027,158.739 88.3228476,158.909832 87.3661762,159.2515 C86.4095047,159.593168 85.4255146,160.228662 84.4141762,161.158 L84.4141762,176 L79.6581762,176 L79.6581762,154.229 L83.5121762,154.229 L84.4141762,156.976 C85.2068468,156.34733 85.8765068,155.855335 86.4231762,155.5 Z M96.2752349,168.251 L96.2752349,143.897 L101.031235,143.897 L101.031235,167.677 C101.031235,169.207674 101.195233,170.273664 101.523235,170.875 C101.851237,171.476336 102.370565,171.886332 103.081235,172.105 C104.939911,172.679003 105.964901,172.966 106.156235,172.966 L106.156235,176 L101.810235,176 C100.006226,176 98.6327396,175.398673 97.6897349,174.196 C96.7467302,172.993327 96.2752349,171.01168 96.2752349,168.251 Z M108.300294,155.172 C110.924307,154.269995 114.354606,153.819 118.591294,153.819 C123.374651,153.819 125.766294,156.060311 125.766294,160.543 L125.766294,176 L122.076294,176 L121.010294,173.499 C120.928293,173.663001 120.525131,173.949998 119.800794,174.36 C119.076457,174.770002 118.112966,175.186831 116.910294,175.6105 C115.707621,176.034169 114.600632,176.246 113.589294,176.246 C111.730618,176.246 110.268299,175.699339 109.202294,174.606 C108.136288,173.512661 107.603294,172.173341 107.603294,170.588 L107.603294,168.374 C107.603294,166.679325 108.108955,165.292172 109.120294,164.2125 C110.131632,163.132828 111.751116,162.593 113.978794,162.593 L121.010294,162.593 C121.037627,161.96433 121.051294,161.492835 121.051294,161.1785 C121.051294,160.864165 121.037627,160.707 121.010294,160.707 C121.010294,159.586328 120.757463,158.821002 120.251794,158.411 C119.746124,158.000998 118.973965,157.796 117.935294,157.796 C115.912617,157.796 112.700982,157.946332 108.300294,158.247 L108.300294,155.172 Z M112.359294,170.014 C112.359294,170.861338 112.550625,171.435332 112.933294,171.736 C113.315962,172.036668 113.87629,172.187 114.614294,172.187 C115.352297,172.187 116.261122,172.036668 117.340794,171.736 C118.420466,171.435332 119.301957,171.134668 119.985294,170.834 L121.010294,170.383 L121.010294,165.709 L114.368294,166.201 C113.028954,166.337667 112.359294,167.130326 112.359294,168.579 L112.359294,170.014 Z M142.875352,161.199 C142.875352,158.984989 141.918695,157.878 140.005352,157.878 C138.748013,157.878 137.69569,158.035165 136.848352,158.3495 C136.001015,158.663835 134.962359,159.189996 133.732352,159.928 L133.732352,176 L128.976352,176 L128.976352,154.229 L132.666352,154.229 L133.732352,156.648 C133.814353,156.593333 134.108183,156.395168 134.613852,156.0535 C135.119522,155.711832 135.625183,155.397501 136.130852,155.1105 C136.636522,154.823499 137.340348,154.543335 138.242352,154.27 C139.144357,153.996665 140.073681,153.86 141.030352,153.86 C143.29903,153.86 144.966347,154.55016 146.032352,155.9305 C147.098358,157.31084 147.631352,159.080656 147.631352,161.24 L147.631352,176 L142.875352,176 L142.875352,161.199 Z M150.021411,165.217 C150.021411,160.706977 150.691071,157.632008 152.030411,155.992 C153.151083,154.597993 154.8594,153.901 157.155411,153.901 C158.139416,153.901 159.307904,154.037665 160.660911,154.311 C162.013918,154.584335 163.223406,154.953331 164.289411,155.418 L164.289411,143.815 L169.004411,143.815 L169.004411,176 L165.232411,176 L164.248411,173.704 C163.510407,174.305336 162.451251,174.879331 161.070911,175.426 C159.690571,175.972669 158.385417,176.246 157.155411,176.246 C152.399387,176.246 150.021411,172.569703 150.021411,165.217 Z M154.777411,165.463 C154.777411,169.836355 155.8844,172.023 158.098411,172.023 C160.257755,172.023 162.307735,171.503672 164.248411,170.465 L164.248411,158.78 C162.389735,158.178664 160.339756,157.878 158.098411,157.878 C157.360407,157.878 156.75908,158.055665 156.294411,158.411 C155.283073,159.203671 154.777411,161.554314 154.777411,165.463 Z M184.731529,147.3 C185.496866,146.753331 186.344191,146.357001 187.273529,146.111 C188.202867,145.864999 189.009192,145.742 189.692529,145.742 L192.029529,145.742 C192.9042,145.742 194.434851,145.858166 196.621529,146.0905 C198.808206,146.322834 200.461856,146.575665 201.582529,146.849 L201.582529,150.621 C200.434523,150.539 198.616874,150.443334 196.129529,150.334 C193.560182,150.252 191.742534,150.211 190.676529,150.211 C189.610523,150.211 188.749532,150.402331 188.093529,150.785 C187.437525,151.167669 187.109529,152.110659 187.109529,153.614 L187.109529,155.541 C187.109529,156.88034 187.382859,157.761831 187.929529,158.1855 C188.476198,158.609169 189.391855,158.821 190.676529,158.821 L195.842529,158.821 C199.341213,158.821 201.500524,160.378984 202.320529,163.495 C202.56653,164.397005 202.689529,165.380995 202.689529,166.447 L202.689529,168.743 C202.689529,172.214351 201.473207,174.469328 199.040529,175.508 C197.783189,176.054669 196.225204,176.328 194.366529,176.328 C189.883839,176.328 186.193876,175.945337 183.296529,175.18 L183.296529,171.408 C186.30321,171.708668 188.913517,171.859 191.127529,171.859 C193.34154,171.859 194.653526,171.831667 195.063529,171.777 C195.473531,171.722333 195.924526,171.599334 196.416529,171.408 C197.427867,171.025331 197.933529,170.178007 197.933529,168.866 L197.933529,166.816 C197.933529,165.777328 197.714864,164.977836 197.277529,164.4175 C196.840193,163.857164 196.074867,163.577 194.981529,163.577 L189.938529,163.577 C188.599188,163.577 187.444367,163.399335 186.474029,163.044 C185.50369,162.688665 184.758864,162.258169 184.239529,161.7525 C183.720193,161.246831 183.310197,160.625004 183.009529,159.887 C182.572193,158.766328 182.353529,157.454341 182.353529,155.951 L182.353529,153.327 C182.353529,150.456986 183.146187,148.448006 184.731529,147.3 Z M206.514587,156.73 C207.334591,155.636661 208.359581,154.912335 209.589587,154.557 C210.819593,154.228998 212.206746,154.065 213.751087,154.065 C215.295428,154.065 216.42975,154.092333 217.154087,154.147 C217.878424,154.201667 218.609584,154.317832 219.347587,154.4955 C220.085591,154.673168 220.673252,154.939665 221.110587,155.295 C221.547923,155.650335 221.944252,156.114997 222.299587,156.689 C222.982924,157.727672 223.324587,159.463321 223.324587,161.896 C223.324587,165.422018 221.356607,167.185 217.420587,167.185 L209.671587,167.185 C209.671587,169.317011 210.026917,170.69733 210.737587,171.326 C211.120256,171.681335 211.564418,171.913666 212.070087,172.023 C212.575756,172.132334 214.031242,172.187 216.436587,172.187 C218.841933,172.187 221.001244,172.036668 222.914587,171.736 L222.914587,175.057 C220.673243,175.822337 217.065279,176.205 212.090587,176.205 C209.35724,176.205 207.478092,175.378175 206.453087,173.7245 C205.428082,172.070825 204.915587,169.187187 204.915587,165.0735 C204.915587,160.959813 205.448582,158.178674 206.514587,156.73 Z M218.568587,161.732 C218.568587,160.091992 218.34309,159.053336 217.892087,158.616 C217.441085,158.178664 216.368262,157.96 214.673587,157.96 C212.514243,157.96 211.215923,158.205998 210.778587,158.698 C210.204584,159.32667 209.876588,160.057829 209.794587,160.8915 C209.712587,161.725171 209.671587,162.592995 209.671587,163.495 L216.477587,163.495 C217.871594,163.495 218.568587,162.907339 218.568587,161.732 Z M226.206646,168.251 L226.206646,143.897 L230.962646,143.897 L230.962646,167.677 C230.962646,169.207674 231.126644,170.273664 231.454646,170.875 C231.782648,171.476336 232.301976,171.886332 233.012646,172.105 C234.871322,172.679003 235.896312,172.966 236.087646,172.966 L236.087646,176 L231.741646,176 C229.937637,176 228.564151,175.398673 227.621146,174.196 C226.678141,172.993327 226.206646,171.01168 226.206646,168.251 Z M235.197705,158.124 L235.197705,154.926 L238.805705,154.229 L238.805705,150.17 C238.805705,145.905979 240.773685,143.774 244.709705,143.774 C246.650381,143.774 248.522696,144.101997 250.326705,144.758 L250.326705,147.669 L245.980705,147.628 C245.133367,147.600667 244.504707,147.778331 244.094705,148.161 C243.794037,148.407001 243.630038,148.810164 243.602705,149.3705 C243.575371,149.930836 243.561705,150.484331 243.561705,151.031 L243.561705,154.229 L248.932705,154.229 L248.932705,158.124 L243.561705,158.124 L243.561705,176 L238.805705,176 L238.805705,158.124 L235.197705,158.124 Z M249.559763,166.201 L249.559763,162.019 L262.433763,162.019 L262.433763,166.201 L249.559763,166.201 Z M265.438822,176 L265.438822,145.988 L277.615822,145.988 C284.61319,145.988 288.111822,151.03095 288.111822,161.117 C288.111822,165.353688 287.305497,168.838653 285.692822,171.572 C284.872818,172.966007 283.772662,174.052496 282.392322,174.8315 C281.011982,175.610504 279.419831,176 277.615822,176 L265.438822,176 Z M270.194822,171.613 L277.328822,171.613 C278.722829,171.613 279.870818,171.148338 280.772822,170.219 C282.494831,168.496991 283.355822,165.449355 283.355822,161.076 C283.355822,155.882641 282.426498,152.602673 280.567822,151.236 C279.720485,150.634664 278.640829,150.334 277.328822,150.334 L270.194822,150.334 L270.194822,171.613 Z M297.963881,155.5 C298.51055,155.144665 299.234876,154.803002 300.136881,154.475 C301.038885,154.146998 302.050209,153.983 303.170881,153.983 C304.291553,153.983 305.070545,154.078666 305.507881,154.27 L305.507881,158.903 C304.797211,158.793666 303.758554,158.739 302.391881,158.739 C301.025207,158.739 299.863552,158.909832 298.906881,159.2515 C297.950209,159.593168 296.966219,160.228662 295.954881,161.158 L295.954881,176 L291.198881,176 L291.198881,154.229 L295.052881,154.229 L295.954881,156.976 C296.747552,156.34733 297.417211,155.855335 297.963881,155.5 Z M311.91594,146.726 C312.544609,146.726 312.85894,147.08133 312.85894,147.792 L312.85894,150.908 C312.85894,151.53667 312.544609,151.851 311.91594,151.851 L308.43094,151.851 C308.157605,151.851 307.925274,151.762168 307.73394,151.5845 C307.542605,151.406832 307.44694,151.181335 307.44694,150.908 L307.44694,147.792 C307.44694,147.08133 307.774936,146.726 308.43094,146.726 L311.91594,146.726 Z M307.73394,176 L307.73394,154.229 L312.48994,154.229 L312.48994,176 L307.73394,176 Z M314.674998,154.229 L319.799998,154.229 L325.293998,170.096 L330.910998,154.229 L335.994998,154.229 L327.794998,176 L322.628998,176 L314.674998,154.229 Z M338.590057,156.73 C339.410061,155.636661 340.435051,154.912335 341.665057,154.557 C342.895063,154.228998 344.282216,154.065 345.826557,154.065 C347.370898,154.065 348.50522,154.092333 349.229557,154.147 C349.953894,154.201667 350.685053,154.317832 351.423057,154.4955 C352.161061,154.673168 352.748722,154.939665 353.186057,155.295 C353.623393,155.650335 354.019722,156.114997 354.375057,156.689 C355.058394,157.727672 355.400057,159.463321 355.400057,161.896 C355.400057,165.422018 353.432077,167.185 349.496057,167.185 L341.747057,167.185 C341.747057,169.317011 342.102387,170.69733 342.813057,171.326 C343.195726,171.681335 343.639888,171.913666 344.145557,172.023 C344.651226,172.132334 346.106712,172.187 348.512057,172.187 C350.917402,172.187 353.076714,172.036668 354.990057,171.736 L354.990057,175.057 C352.748713,175.822337 349.140749,176.205 344.166057,176.205 C341.43271,176.205 339.553562,175.378175 338.528557,173.7245 C337.503552,172.070825 336.991057,169.187187 336.991057,165.0735 C336.991057,160.959813 337.524052,158.178674 338.590057,156.73 Z M350.644057,161.732 C350.644057,160.091992 350.418559,159.053336 349.967557,158.616 C349.516555,158.178664 348.443732,157.96 346.749057,157.96 C344.589713,157.96 343.291393,158.205998 342.854057,158.698 C342.280054,159.32667 341.952057,160.057829 341.870057,160.8915 C341.788057,161.725171 341.747057,162.592995 341.747057,163.495 L348.553057,163.495 C349.947064,163.495 350.644057,162.907339 350.644057,161.732 Z" id="Moorland-Self-Drive"></path>
        </g>
    </g>
</svg>