<svg id="Layer_1" data-name="Layer 1" xmlns="http://www.w3.org/2000/svg" viewBox="0 0 300.13 148.3"><defs><style>.cls-1,.cls-2{fill:#1a5798;}.cls-2{font-size:37.63px;font-family:Exo-Bold, Exo;font-weight:700;}.cls-3{letter-spacing:-0.07em;}.cls-4{letter-spacing:0.02em;}.cls-5{letter-spacing:0.04em;}.cls-6{letter-spacing:0em;}</style></defs><title>msd-logo-main-v1</title><path class="cls-1" d="M197.71,62.6a35,35,0,0,0-7.6-8.79,50.48,50.48,0,0,0-8-4.85c-4.89-2.5-23.55-10.05-27.5-11.75-3.22-1.39-4.21-2.59-4.94-4.08a7.39,7.39,0,0,1-.56-2.92,7.54,7.54,0,0,1,.54-2.86,7.21,7.21,0,0,1,4.1-3.92,10.87,10.87,0,0,1,3.37-.47h93.74a27.52,27.52,0,0,1,23.23,12.6c4.24,5.88,4.46,13.21,4.46,17.68,0,8-1.6,15.18-4.45,19.6-6.89,10.7-18.5,10.75-23.24,10.75H230.74V32.33h-4.31V87.89h24.46c16.06,0,22.68-6.16,27.27-13.54,2.86-4.59,4.6-12.45,4.6-21.11,0-5.34-.19-13-5.27-20.37-8.77-13.23-22.74-14.22-26.6-14.22H157.18a16.76,16.76,0,0,0-4.92.75,11.54,11.54,0,0,0-6.55,6.29,11.76,11.76,0,0,0-.88,4.56,11.88,11.88,0,0,0,.92,4.59c1.21,2.71,3.43,4.75,7.16,6.31,4.16,1.79,22.59,9.25,27.26,11.64a49.91,49.91,0,0,1,7.3,4.41c2.08,1.9,5.19,5,6.47,7.47a21.59,21.59,0,0,1,2.64,9.81,25.79,25.79,0,0,1-1.27,9.63,24.84,24.84,0,0,1-12.85,14.43c-3.46,1.64-8.2,2.17-11.77,2.17H101.57V35.56a18.29,18.29,0,0,0-3.71-11.51c-4.37-5.84-12.52-8-19.39-5.75-7.16,2.4-11.76,10-11.76,17.26v69.56H71V35.56c0-6.49,3.7-11.46,8.85-13.19a13.11,13.11,0,0,1,14.6,4.33,15.81,15.81,0,0,1,2.8,8.86v69.5H170.8a33.55,33.55,0,0,0,13.49-2.8,28.74,28.74,0,0,0,15.1-16.78,36.89,36.89,0,0,0,1.49-11.22A26.68,26.68,0,0,0,197.71,62.6Z"/><path class="cls-1" d="M32.76,17.69A17.69,17.69,0,0,0,19.58,29.54a19.71,19.71,0,0,0-.82,6v69.5h4.31V35.56a16.36,16.36,0,0,1,.61-4.72,13.38,13.38,0,0,1,9.93-8.93,13.23,13.23,0,0,1,12.64,4.36c1.5,1.8,3.17,4.34,3.17,9.29v69.56h4.29V35.56c0-6.38-2.19-9.71-4.19-12.08A17.55,17.55,0,0,0,32.76,17.69Z"/><path class="cls-1" d="M77.05,14.2a22,22,0,0,1,13.27-.31,21,21,0,0,1,11,7.48,21.54,21.54,0,0,1,4.63,14.2v61h64.78a20.89,20.89,0,0,0,9.92-2A20.16,20.16,0,0,0,191.2,82.72a21.55,21.55,0,0,0,1-8,17.9,17.9,0,0,0-2.11-7.94,20.64,20.64,0,0,0-5.34-6.14,45.48,45.48,0,0,0-6.6-4c-4.46-2.28-22.66-9.65-27-11.53s-7.71-4.62-9.4-8.55A16.49,16.49,0,0,1,141.7,24a15.89,15.89,0,0,1,9-8.68,17.18,17.18,0,0,1,6.42-1h93.74C259,14.31,273,18.12,281,30.19c3.4,5,6.1,11.93,6.1,23.05,0,7.52-1.63,16.94-4.26,21.65-3,5.31-9.86,17.35-31.95,17.35h-28.8V32.33h-4.31V96.59h33.11c15.9,0,28.92-6.41,35.79-19.75,3.65-7.11,4.72-15.58,4.73-23.6,0-11.58-2-18.22-6.48-25.09a41.14,41.14,0,0,0-34-18.15H157.15a23.45,23.45,0,0,0-7.93,1.3,20.2,20.2,0,0,0-11.49,11.05,20.68,20.68,0,0,0,.09,15.94c2.16,5.15,6.86,8.86,11.6,10.78s22.57,9.25,26.8,11.42A42.43,42.43,0,0,1,182.15,64a16.41,16.41,0,0,1,4.21,4.82c1.94,3.54,2.06,8.51.76,12.49a16.65,16.65,0,0,1-8.35,9.37,15.39,15.39,0,0,1-8.08,1.53H110.22V35.56c0-7.42-2.22-12.62-5.54-16.85a26,26,0,0,0-29-8.58C70.55,11.86,62.9,17,60.22,24.59a26.68,26.68,0,0,0-4.12-6.73,26.12,26.12,0,0,0-44.77,9.07,28.21,28.21,0,0,0-1.22,8.63v69.5h4.31V35.56a22.77,22.77,0,0,1,1-7.33,21.81,21.81,0,0,1,37.39-7.58,21.73,21.73,0,0,1,5.24,14.92v69.55h4.3V35.56C62.37,24.81,68.52,17,77.05,14.2Z"/><path class="cls-1" d="M292,22.9C278.11,2.7,256.57,1.56,250.89,1.35H157.15a36.41,36.41,0,0,0-11,1.85,28.71,28.71,0,0,0-18.64,27.22,29.17,29.17,0,0,0,2.35,11.33,27.31,27.31,0,0,0,7,9.62,30,30,0,0,0,4.54,3.33A38.09,38.09,0,0,0,145.93,57c5,2.16,26.62,9.51,31.77,14.79a7.27,7.27,0,0,1-2.61,11.12,10.69,10.69,0,0,1-4.4.7H118.87v-48A34.71,34.71,0,0,0,72.84,2,34.38,34.38,0,0,0,60.23,9.69,34.74,34.74,0,0,0,3.08,24.32,37.06,37.06,0,0,0,1.46,35.56v69.5H5.77V35.56a26.74,26.74,0,0,1,1.42-9.94,30.72,30.72,0,0,1,23-20.68c10.58-2.18,22.83,2.37,30,11A34.59,34.59,0,0,1,74.24,6a30.46,30.46,0,0,1,40.33,29.54V87.89h56.12a15.19,15.19,0,0,0,6.2-1A11.94,11.94,0,0,0,183,80c1-2.74.76-7.1-.46-9.07a10.17,10.17,0,0,0-2.21-2.72,31.44,31.44,0,0,0-6.1-3.81c-4-2.06-21.76-9.24-26.56-11.31-5.25-2.1-11.19-6.64-13.84-13a24.57,24.57,0,0,1,13.86-32.8,26.55,26.55,0,0,1,9.46-1.58h93.74c5.1.19,24.77,1.6,37.12,19.29,8.43,11.83,7.77,25.1,7.77,28.3,0,14.89-3,20.84-5.08,25.42-1.13,2.47-10.58,22-39.81,22H213.44V32.33h-4.31v72.73h41.76c29.83,0,39.93-17.76,43.58-24.25,3-5.27,5.57-12.1,5.57-27.57C300,47.63,300.62,35.56,292,22.9Z"/><text class="cls-2" transform="translate(0 146.85)"><tspan class="cls-3">V</tspan><tspan class="cls-4" x="22.95" y="0">e</tspan><tspan class="cls-5" x="43.46" y="0">h</tspan><tspan class="cls-4" x="65.66" y="0">ic</tspan><tspan class="cls-6" x="94.29" y="0">l</tspan><tspan class="cls-4" x="106.07" y="0">e </tspan><tspan x="136.73" y="0">So</tspan><tspan class="cls-4" x="180" y="0">lu</tspan><tspan class="cls-5" x="213.98" y="0">t</tspan><tspan class="cls-4" x="229.82" y="0">i</tspan><tspan x="239.12" y="0">o</tspan><tspan class="cls-4" x="260.19" y="0">ns</tspan></text></svg>