<svg id="Layer_1" data-name="Layer 1" xmlns="http://www.w3.org/2000/svg" viewBox="0 0 396.17 238"><defs><style>.cls-1{fill:#1a5798;}.cls-2{fill:#fff;}</style></defs><title>msd-logo-blue</title><rect class="cls-1" width="396.17" height="238"/><path class="cls-2" d="M245.07,109.57a35.2,35.2,0,0,0-7.62-8.83,50.93,50.93,0,0,0-8-4.86c-4.91-2.51-23.65-10.09-27.61-11.8-3.24-1.39-4.23-2.6-5-4.1A7.48,7.48,0,0,1,196.3,77a7.34,7.34,0,0,1,.55-2.87A7.25,7.25,0,0,1,201,70.24a10.91,10.91,0,0,1,3.39-.47h94.12a27.61,27.61,0,0,1,23.32,12.66c4.26,5.89,4.49,13.26,4.49,17.75,0,8-1.61,15.24-4.47,19.68-6.92,10.74-18.57,10.79-23.33,10.79H278.23V79.18h-4.32V135h24.55c16.13,0,22.77-6.19,27.38-13.59,2.87-4.62,4.61-12.5,4.61-21.2,0-5.36-.19-13-5.29-20.45-8.8-13.29-22.83-14.28-26.71-14.28H204.37a16.86,16.86,0,0,0-4.94.75A11.44,11.44,0,0,0,192,77.09a11.79,11.79,0,0,0,.92,4.61c1.21,2.72,3.45,4.76,7.19,6.33,4.17,1.8,22.68,9.29,27.37,11.69a50,50,0,0,1,7.32,4.43c2.1,1.91,5.21,5,6.49,7.5a21.56,21.56,0,0,1,2.66,9.85,26,26,0,0,1-1.27,9.66,25,25,0,0,1-12.91,14.49c-3.47,1.64-8.23,2.17-11.81,2.17h-69.4V82.43a18.38,18.38,0,0,0-3.73-11.56c-4.39-5.86-12.57-8.07-19.47-5.77-7.19,2.41-11.8,10-11.8,17.33v69.83h4.32V82.43c0-6.52,3.72-11.51,8.89-13.24a13.15,13.15,0,0,1,14.66,4.34,15.88,15.88,0,0,1,2.81,8.9V152.2h73.83a33.7,33.7,0,0,0,13.54-2.82,28.83,28.83,0,0,0,15.16-16.84,37.19,37.19,0,0,0,1.49-11.26A26.73,26.73,0,0,0,245.07,109.57Z"/><path class="cls-2" d="M79.46,64.48a17.77,17.77,0,0,0-13.24,11.9,20,20,0,0,0-.82,6.05V152.2h4.32V82.43a16.48,16.48,0,0,1,.62-4.75,13.44,13.44,0,0,1,10-9A13.3,13.3,0,0,1,93,73.1c1.51,1.8,3.18,4.35,3.18,9.33v69.83h4.31V82.42c0-6.41-2.2-9.76-4.2-12.13A17.64,17.64,0,0,0,79.46,64.48Z"/><path class="cls-2" d="M123.93,61a22.06,22.06,0,0,1,13.32-.3,21.13,21.13,0,0,1,11,7.5,21.65,21.65,0,0,1,4.65,14.26v61.26h65a21,21,0,0,0,10-2,20.24,20.24,0,0,0,10.63-11.94,21.52,21.52,0,0,0,1-8,18,18,0,0,0-2.12-8,20.67,20.67,0,0,0-5.35-6.16,46.39,46.39,0,0,0-6.64-4C221,101.31,202.72,93.92,198.33,92s-7.73-4.63-9.43-8.58a16.51,16.51,0,0,1-.06-12.62,15.94,15.94,0,0,1,9.06-8.72,17.15,17.15,0,0,1,6.44-1h94.12c8.14,0,22.23,3.83,30.23,15.94,3.42,5,6.13,12,6.13,23.15,0,7.55-1.63,17-4.28,21.74-3,5.33-9.9,17.42-32.07,17.42H269.54V79.18h-4.32V143.7h33.24c16,0,29-6.44,35.93-19.84,3.67-7.13,4.74-15.64,4.75-23.69,0-11.62-2-18.29-6.5-25.2a41.29,41.29,0,0,0-34.18-18.22H204.35a23.49,23.49,0,0,0-8,1.31,20.26,20.26,0,0,0-11.53,11.09,20.78,20.78,0,0,0,.08,16c2.17,5.17,6.89,8.89,11.65,10.81,4.61,2,22.66,9.29,26.91,11.47a43,43,0,0,1,6,3.55,16.55,16.55,0,0,1,4.23,4.84c2,3.56,2.08,8.54.76,12.55a16.73,16.73,0,0,1-8.38,9.41,15.52,15.52,0,0,1-8.11,1.53H157.23V82.43c0-7.45-2.24-12.68-5.57-16.92a26.12,26.12,0,0,0-29.13-8.62c-5.12,1.74-12.8,6.88-15.49,14.52a26.81,26.81,0,0,0-4.14-6.76,26.22,26.22,0,0,0-44.95,9.11,28.47,28.47,0,0,0-1.22,8.67V152.2H61V82.43a23.19,23.19,0,0,1,1-7.37,21.9,21.9,0,0,1,37.54-7.6c2.5,3,5.26,7.41,5.26,15v69.83h4.32V82.43C109.19,71.63,115.36,63.81,123.93,61Z"/><path class="cls-2" d="M339.69,69.71c-13.89-20.29-35.53-21.42-41.22-21.64H204.35a36.46,36.46,0,0,0-11,1.86A29.14,29.14,0,0,0,177,88.63,27.53,27.53,0,0,0,184,98.29a30.35,30.35,0,0,0,4.55,3.34,38.26,38.26,0,0,0,4.5,2.29c5,2.17,26.73,9.54,31.89,14.85a7.29,7.29,0,0,1-2.62,11.16,10.72,10.72,0,0,1-4.41.71h-52V82.43a34.78,34.78,0,0,0-58.88-26A34.87,34.87,0,0,0,49.66,71.13,37.18,37.18,0,0,0,48,82.43V152.2h4.32V82.43a27,27,0,0,1,1.43-10,30.83,30.83,0,0,1,23.1-20.75c10.62-2.2,22.92,2.37,30.15,11a34.69,34.69,0,0,1,14.07-10A30.58,30.58,0,0,1,161.6,82.43V135h56.35a15.17,15.17,0,0,0,6.22-1,12,12,0,0,0,6.13-7c1-2.76.77-7.14-.46-9.11a10.08,10.08,0,0,0-2.23-2.73,31,31,0,0,0-6.12-3.83c-4-2.07-21.85-9.28-26.67-11.35-5.27-2.11-11.23-6.67-13.89-13.07A24.67,24.67,0,0,1,194.84,54a26.65,26.65,0,0,1,9.5-1.59h94.12c5.12.19,24.87,1.6,37.27,19.36,8.47,11.87,7.8,25.19,7.8,28.42,0,14.95-3,20.92-5.1,25.52-1.13,2.48-10.62,22.13-40,22.13h-37.6V79.18h-4.32v73h41.93c29.95,0,40.09-17.83,43.75-24.35,3-5.29,5.59-12.15,5.59-27.68C347.81,94.54,348.39,82.43,339.69,69.71Z"/><path class="cls-2" d="M47.85,167.46h4.53l5,16.66,5.23-16.66h4.53l-7.32,22.25H54.84Z"/><path class="cls-2" d="M71,168.28a5.46,5.46,0,0,1,1.5-.64,5.25,5.25,0,0,1,1.19-.18l4.39.11a57.29,57.29,0,0,1,5.9.38v3.52H75.23q-1.12,0-1.4.55a3,3,0,0,0-.18,1.15v3.46l9,.3v3.52l-9,.28v3.46c0,.77.21,1.24.64,1.4a3.43,3.43,0,0,0,1.25.18H84v3.5q-1.52.21-7.51.43l-2,.09H74c-.21,0-.49,0-.84,0a5,5,0,0,1-1.25-.32,4.36,4.36,0,0,1-1.28-.73,4.31,4.31,0,0,1-1.21-3.37V172.08Q69.4,169.32,71,168.28Z"/><path class="cls-2" d="M87.94,189.71V167.46H92.2V177h7.63v-9.54h4.26v22.25H99.82V180.9H92.2v8.81Z"/><path class="cls-2" d="M108.49,189.71V167.46h4.26v22.25Z"/><path class="cls-2" d="M118.09,170.2a5.74,5.74,0,0,1,3.37-2.64,9.82,9.82,0,0,1,2.67-.34,27.46,27.46,0,0,1,7.75,1v3.34l-.83-.09-.9-.08-1.14-.09-1.23-.08c-1-.06-1.81-.09-2.55-.09a8.65,8.65,0,0,0-1.75.14,3.29,3.29,0,0,0-1.2.55,2.37,2.37,0,0,0-.85,1.23,18.78,18.78,0,0,0-.61,5.62,12.78,12.78,0,0,0,.89,5.58,3.49,3.49,0,0,0,3.42,1.72q2.86,0,5.77-.18l1-.06V189a24.27,24.27,0,0,1-7.05.85h-.7q-4.07,0-5.82-2.92t-1.75-8.59Q116.57,172.69,118.09,170.2Z"/><path class="cls-2" d="M135.72,185.4V167.46H140v16.75q0,1.15.64,1.4a3.41,3.41,0,0,0,1.24.18h7.63v3.92h-9.15Q135.72,189.71,135.72,185.4Z"/><path class="cls-2" d="M154.87,168.28a5.46,5.46,0,0,1,1.5-.64,5.25,5.25,0,0,1,1.19-.18l4.39.11a57.29,57.29,0,0,1,5.9.38v3.52h-8.79q-1.12,0-1.4.55a3,3,0,0,0-.18,1.15v3.46l9,.3v3.52l-9,.28v3.46c0,.77.21,1.24.64,1.4a3.43,3.43,0,0,0,1.25.18h8.48v3.5q-1.52.21-7.51.43l-2,.09h-.56c-.21,0-.49,0-.84,0a5,5,0,0,1-1.25-.32,4.36,4.36,0,0,1-1.28-.73,4.31,4.31,0,0,1-1.21-3.37V172.08Q153.23,169.32,154.87,168.28Z"/><path class="cls-2" d="M180.25,174.94V173q0-3.19,1.73-4.53a7.1,7.1,0,0,1,4.28-1.21h1.54c.78,0,1.92.08,3.43.24a22,22,0,0,1,3.63.64v3.34q-3.46-.3-5.51-.3h-2.21a4.22,4.22,0,0,0-2,.36c-.43.24-.64.84-.64,1.79v1.1a2.16,2.16,0,0,0,.51,1.7,3,3,0,0,0,1.85.43h3.52q3.46,0,4.65,2.76a7.77,7.77,0,0,1,.61,3.13V184q0,4.07-2.71,5.32a7.89,7.89,0,0,1-3.43.67,31.84,31.84,0,0,1-8.6-.91V185.7q3.35.34,5.84.34t2.9-.06a3.42,3.42,0,0,0,.84-.24,1.57,1.57,0,0,0,.91-1.61v-1.19c0-1.05-.33-1.7-1-1.95a2.82,2.82,0,0,0-1-.15H186Q180.25,180.84,180.25,174.94Z"/><path class="cls-2" d="M199.87,184.21a20.46,20.46,0,0,1-.35-2.43q-.12-1.37-.12-3.3a27.46,27.46,0,0,1,.23-3.65,16.34,16.34,0,0,1,.62-2.92,6.6,6.6,0,0,1,1.06-2.05,6.73,6.73,0,0,1,1.35-1.34,5.3,5.3,0,0,1,1.69-.76,12,12,0,0,1,3.33-.46c1.17,0,2,0,2.55.06a11.86,11.86,0,0,1,1.7.26,5.49,5.49,0,0,1,1.53.56,8.36,8.36,0,0,1,1.29.93,4.44,4.44,0,0,1,1.08,1.43,12.9,12.9,0,0,1,.76,2,18.48,18.48,0,0,1,.67,5.26,35.85,35.85,0,0,1-.23,4.63,18.13,18.13,0,0,1-.59,2.8,6.67,6.67,0,0,1-1,2,6.46,6.46,0,0,1-1.31,1.34,5.16,5.16,0,0,1-1.66.78,17.33,17.33,0,0,1-5.93.42,8.46,8.46,0,0,1-2.74-.46,9.45,9.45,0,0,1-1.47-.78,4,4,0,0,1-1-1,9.14,9.14,0,0,1-.82-1.43A8.79,8.79,0,0,1,199.87,184.21Zm4.12-10a19.12,19.12,0,0,0-.24,1.93q-.09,1.12-.09,2.82c0,1.14,0,2.1.12,2.9a9.51,9.51,0,0,0,.41,2.05,2.55,2.55,0,0,0,.87,1.28,5.59,5.59,0,0,0,3.28.76,5.31,5.31,0,0,0,3.19-.79Q213,184,213,178.74a18.45,18.45,0,0,0-.38-4.71,7.44,7.44,0,0,0-.7-1.64,2.13,2.13,0,0,0-.89-.76,5.73,5.73,0,0,0-2.22-.4q-1.27,0-1.78,0a6.31,6.31,0,0,0-1.06.2,2,2,0,0,0-.88.47,4.23,4.23,0,0,0-1.11,2.22Z"/><path class="cls-2" d="M221.34,185.4V167.46h4.26v16.75c0,.77.21,1.24.64,1.4a3.44,3.44,0,0,0,1.25.18h7.63v3.92H226Q221.34,189.71,221.34,185.4Z"/><path class="cls-2" d="M246.45,189.86H246q-3.64,0-4.86-.76a8.91,8.91,0,0,1-1.27-1.08,4.45,4.45,0,0,1-1.1-1.75,18.82,18.82,0,0,1-.91-6.29V167.46h4.26V180a11.76,11.76,0,0,0,.58,4.29,2.66,2.66,0,0,0,2,1.55,11.53,11.53,0,0,0,1.93.12,4.47,4.47,0,0,0,2.11-.46q1.79-1,1.79-5.5V167.46h4.29V180q0,4.78-1.4,6.93a7.33,7.33,0,0,1-.9,1.23,4,4,0,0,1-1.12.82,9.08,9.08,0,0,1-1.17.51,6.34,6.34,0,0,1-1.31.26A22.24,22.24,0,0,1,246.45,189.86Z"/><path class="cls-2" d="M258.37,171.38v-3.92h16.44v3.92h-6.17v18.33h-4.26V171.38Z"/><path class="cls-2" d="M278.52,189.71V167.46h4.26v22.25Z"/><path class="cls-2" d="M287.32,184.21a19.94,19.94,0,0,1-.35-2.43q-.12-1.37-.12-3.3a27.9,27.9,0,0,1,.23-3.65,16.09,16.09,0,0,1,.62-2.92,6.59,6.59,0,0,1,1.06-2.05,6.79,6.79,0,0,1,1.35-1.34,5.29,5.29,0,0,1,1.69-.76,11.93,11.93,0,0,1,3.33-.46c1.16,0,2,0,2.55.06a11.83,11.83,0,0,1,1.7.26,5.52,5.52,0,0,1,1.53.56,8.62,8.62,0,0,1,1.29.93,4.4,4.4,0,0,1,1.08,1.43,12.39,12.39,0,0,1,.76,2,18.48,18.48,0,0,1,.67,5.26,35.85,35.85,0,0,1-.23,4.63,17.53,17.53,0,0,1-.59,2.8,6.61,6.61,0,0,1-1,2,6.4,6.4,0,0,1-1.31,1.34,5.17,5.17,0,0,1-1.66.78,17.34,17.34,0,0,1-5.93.42,8.48,8.48,0,0,1-2.74-.46,9.42,9.42,0,0,1-1.47-.78,4,4,0,0,1-1.05-1,9.14,9.14,0,0,1-.82-1.43A8.65,8.65,0,0,1,287.32,184.21Zm4.12-10a18.4,18.4,0,0,0-.24,1.93q-.09,1.12-.09,2.82t.12,2.9a9.21,9.21,0,0,0,.41,2.05,2.54,2.54,0,0,0,.87,1.28,5.59,5.59,0,0,0,3.28.76,5.32,5.32,0,0,0,3.19-.79q1.49-1.12,1.49-6.38a18.45,18.45,0,0,0-.38-4.71,7.71,7.71,0,0,0-.7-1.64,2.13,2.13,0,0,0-.9-.76,5.73,5.73,0,0,0-2.22-.4q-1.28,0-1.78,0a6.33,6.33,0,0,0-1.07.2,2,2,0,0,0-.88.47,4.3,4.3,0,0,0-.64.87A4.25,4.25,0,0,0,291.44,174.17Z"/><path class="cls-2" d="M308.79,189.71V167.46h4.32l8.81,14.38V167.46h4.26v22.25h-4.26l-8.84-14.22v14.22Z"/><path class="cls-2" d="M330.28,174.94V173q0-3.19,1.73-4.53a7.11,7.11,0,0,1,4.29-1.21h1.53q1.17,0,3.43.24a22.07,22.07,0,0,1,3.63.64v3.34q-3.47-.3-5.52-.3h-2.21a4.2,4.2,0,0,0-2,.36q-.64.37-.64,1.79v1.1a2.16,2.16,0,0,0,.51,1.7,3,3,0,0,0,1.86.43h3.52q3.46,0,4.65,2.76a7.81,7.81,0,0,1,.61,3.13V184q0,4.07-2.71,5.32a7.89,7.89,0,0,1-3.43.67,31.82,31.82,0,0,1-8.6-.91V185.7q3.34.34,5.83.34t2.9-.06a3.39,3.39,0,0,0,.84-.24,1.57,1.57,0,0,0,.91-1.61v-1.19q0-1.58-1-1.95a2.82,2.82,0,0,0-1-.15H336Q330.28,180.84,330.28,174.94Z"/></svg>