<svg id="Layer_1" data-name="Layer 1" xmlns="http://www.w3.org/2000/svg" viewBox="0 0 300.13 147.72"><defs><style>.cls-1{fill:#fff;}</style></defs><title>msd-logo-white</title><path class="cls-1" d="M197.37,62.94a35,35,0,0,0-7.62-8.82,51,51,0,0,0-8-4.87c-4.9-2.51-23.64-10.09-27.6-11.8-3.24-1.39-4.23-2.6-5-4.1a7.83,7.83,0,0,1,0-5.79,7.24,7.24,0,0,1,4.11-3.94,10.76,10.76,0,0,1,3.38-.48h94.12A27.62,27.62,0,0,1,274.09,35.8c4.25,5.9,4.48,13.26,4.48,17.75,0,8-1.61,15.23-4.47,19.68C267.18,84,255.53,84,250.77,84H230.54V32.56h-4.33V88.34h24.56c16.13,0,22.77-6.19,27.38-13.59,2.87-4.62,4.61-12.51,4.61-21.2,0-5.37-.18-13-5.28-20.46-8.81-13.28-22.83-14.27-26.71-14.27H156.68a16.81,16.81,0,0,0-4.93.75,11.76,11.76,0,0,0-6.54,15.51c1.21,2.71,3.44,4.76,7.19,6.33,4.17,1.8,22.68,9.29,27.37,11.69a49.07,49.07,0,0,1,7.32,4.43c2.1,1.9,5.22,5,6.5,7.5a21.57,21.57,0,0,1,2.65,9.84A26,26,0,0,1,195,84.54,25,25,0,0,1,182.06,99c-3.47,1.64-8.23,2.17-11.81,2.17h-69.4V35.8a18.38,18.38,0,0,0-3.72-11.56c-4.39-5.86-12.57-8.08-19.47-5.77-7.19,2.41-11.8,10-11.8,17.33v69.83h4.32V35.8c0-6.51,3.72-11.51,8.89-13.24A13.15,13.15,0,0,1,93.72,26.9a15.87,15.87,0,0,1,2.81,8.9v69.78h73.83a33.76,33.76,0,0,0,13.54-2.82,28.85,28.85,0,0,0,15.17-16.84,37.24,37.24,0,0,0,1.49-11.27A26.64,26.64,0,0,0,197.37,62.94Z"/><path class="cls-1" d="M31.77,17.85a17.79,17.79,0,0,0-13.24,11.9,20.28,20.28,0,0,0-.81,6v69.78H22V35.8a16.47,16.47,0,0,1,.62-4.75,13.21,13.21,0,0,1,22.65-4.58c1.51,1.8,3.18,4.36,3.18,9.33v69.83H52.8V35.8c0-6.41-2.2-9.76-4.2-12.13A17.65,17.65,0,0,0,31.77,17.85Z"/><path class="cls-1" d="M76.24,14.35A22,22,0,0,1,89.56,14a21.17,21.17,0,0,1,11,7.51,21.64,21.64,0,0,1,4.65,14.25V97.07h65a21,21,0,0,0,10-2,20.29,20.29,0,0,0,10.63-11.94,21.48,21.48,0,0,0,1-8,17.94,17.94,0,0,0-2.12-8A20.49,20.49,0,0,0,184.41,61a45.46,45.46,0,0,0-6.64-4c-4.46-2.29-22.74-9.69-27.13-11.58s-7.74-4.63-9.43-8.58a16.48,16.48,0,0,1-.06-12.62,15.9,15.9,0,0,1,9.06-8.71,17.08,17.08,0,0,1,6.44-1h94.12c8.14,0,22.23,3.83,30.22,15.94,3.42,5,6.13,12,6.13,23.15,0,7.54-1.63,17-4.28,21.73-3,5.34-9.9,17.42-32.07,17.42H221.85V32.56h-4.32V97.07h33.24c16,0,29-6.43,35.93-19.83,3.67-7.13,4.74-15.64,4.74-23.69,0-11.62-2-18.29-6.5-25.2a41.3,41.3,0,0,0-34.17-18.22H156.65a23.43,23.43,0,0,0-8,1.31,20.28,20.28,0,0,0-11.53,11.09,20.81,20.81,0,0,0,.08,16c2.18,5.17,6.89,8.89,11.65,10.82s22.66,9.28,26.91,11.46a44.12,44.12,0,0,1,5.95,3.55A16.44,16.44,0,0,1,186,69.22c2,3.55,2.07,8.54.76,12.54a16.74,16.74,0,0,1-8.38,9.41,15.5,15.5,0,0,1-8.11,1.53H109.54V35.8A26.26,26.26,0,0,0,90.78,9.9a26.32,26.32,0,0,0-16,.36C69.71,12,62,17.14,59.34,24.78A26.92,26.92,0,0,0,55.2,18a26.22,26.22,0,0,0-44.95,9.11A28.46,28.46,0,0,0,9,35.8v69.78h4.32V35.8a23.35,23.35,0,0,1,1-7.37,21.9,21.9,0,0,1,37.55-7.6c2.5,3,5.26,7.41,5.26,15v69.83H61.5V35.8C61.5,25,67.67,17.19,76.24,14.35Z"/><path class="cls-1" d="M292,23.09C278.1,2.8,256.47,1.66,250.77,1.45H156.65a36.49,36.49,0,0,0-11,1.86,28.82,28.82,0,0,0-18.71,27.33A29.23,29.23,0,0,0,129.28,42a27.72,27.72,0,0,0,7.05,9.66A30.72,30.72,0,0,0,140.89,55a38.43,38.43,0,0,0,4.5,2.29c5,2.17,26.73,9.55,31.89,14.85a7.28,7.28,0,0,1-2.62,11.16,10.76,10.76,0,0,1-4.41.71h-52V35.8A34.86,34.86,0,0,0,72,2.05,34.56,34.56,0,0,0,59.34,9.82,34.87,34.87,0,0,0,2,24.51,37.33,37.33,0,0,0,.34,35.8v69.78H4.67V35.8a27,27,0,0,1,1.42-10A30.84,30.84,0,0,1,29.19,5.06c10.62-2.2,22.92,2.37,30.15,11a34.77,34.77,0,0,1,14.07-10,30.47,30.47,0,0,1,34,10.06,30.48,30.48,0,0,1,6.5,19.61V88.33h56.35a15.16,15.16,0,0,0,6.22-1,12,12,0,0,0,6.14-7c1-2.76.76-7.14-.46-9.11a9.88,9.88,0,0,0-2.23-2.73,30.9,30.9,0,0,0-6.12-3.83c-4-2.07-21.84-9.28-26.67-11.35-5.27-2.11-11.23-6.67-13.89-13.07A24.66,24.66,0,0,1,147.15,7.36a26.64,26.64,0,0,1,9.5-1.59h94.12c5.12.19,24.87,1.6,37.27,19.36,8.46,11.88,7.79,25.2,7.79,28.42,0,15-3,20.92-5.1,25.52-1.13,2.48-10.62,22.13-40,22.13H213.16V32.56h-4.32v73h41.93c29.94,0,40.09-17.84,43.75-24.36,3-5.29,5.6-12.14,5.6-27.67C300.12,47.92,300.7,35.8,292,23.09Z"/><path class="cls-1" d="M.31,118.06H6.13l6.36,21.4,6.72-21.4H25l-9.41,28.59H9.29Z"/><path class="cls-1" d="M29.1,126a18.16,18.16,0,0,1,3.12-.24q1.76,0,2.73.06a19.71,19.71,0,0,1,2,.23,5.73,5.73,0,0,1,1.62.51,5.42,5.42,0,0,1,1.21.9,3.9,3.9,0,0,1,.9,1.35,10.79,10.79,0,0,1,.7,4,7.22,7.22,0,0,1-.66,3.46q-1.29,2.22-5.12,2.22H29a8.46,8.46,0,0,0,.23,2.19,1.9,1.9,0,0,0,.86,1.19,3.39,3.39,0,0,0,1.31.47c.46.07,1.7.1,3.73.1A38.29,38.29,0,0,0,41,142v3.71a13.19,13.19,0,0,1-3.53.82l-2.45.2c-.44,0-1,0-1.64,0q-1.29,0-3,0c-2.58,0-4.37-.8-5.36-2.42s-1.48-4.24-1.48-7.87.4-6.21,1.19-7.73A5.62,5.62,0,0,1,29.1,126Zm6.79,7a3.94,3.94,0,0,0-.53-2.52,2.91,2.91,0,0,0-2.12-.57A15.47,15.47,0,0,0,31,130a2.42,2.42,0,0,0-1.17.55,2.1,2.1,0,0,0-.73,1.34,10.39,10.39,0,0,0-.15,1.7v1h5.19C35.32,134.58,35.89,134.06,35.89,133Z"/><path class="cls-1" d="M44.33,146.65V116.06h5.43v12.07a13.22,13.22,0,0,1,4.53-2.38,10.2,10.2,0,0,1,2.07-.19q6.21,0,6.21,7.26v13.83H57.1V132.74c0-1.87-.77-2.81-2.3-2.81a7.71,7.71,0,0,0-2.66.41,9,9,0,0,0-2.34,1.39v14.92Z"/><path class="cls-1" d="M65.5,122.82v-3.44c0-.67.31-1,.94-1h4.1c.57,0,.86.34.86,1v3.44c0,.6-.29.9-.86.9h-4.1a1,1,0,0,1-.69-.23A.87.87,0,0,1,65.5,122.82Zm.2,23.83V125.91h5.46v20.74Z"/><path class="cls-1" d="M74.37,136.26a23.75,23.75,0,0,1,.49-5.26,7.45,7.45,0,0,1,1.44-3.24,5.54,5.54,0,0,1,2.13-1.58,7.47,7.47,0,0,1,2.77-.47,32,32,0,0,1,9.53,1.21v3.4q-3.7-.23-5.91-.23a22,22,0,0,0-2.66.08,3.11,3.11,0,0,0-1,.39,1.74,1.74,0,0,0-.78,1,14.94,14.94,0,0,0-.54,4.55,16.91,16.91,0,0,0,.37,4.24A2.66,2.66,0,0,0,81.3,142a4.86,4.86,0,0,0,2.29.41q3.16,0,6.36-.27l1.06-.08v3.44a9.47,9.47,0,0,1-3.52,1.09c-1.69.16-3.16.23-4.41.23H81.2a6,6,0,0,1-4.84-2.07Q74.37,142.48,74.37,136.26Z"/><path class="cls-1" d="M94,139.27V116.06h5.46v22.35a6.93,6.93,0,0,0,.43,2.89,2.49,2.49,0,0,0,1.37,1.17,18.67,18.67,0,0,0,2.62.82v3.36H99.33a4.83,4.83,0,0,1-4-1.7C94.42,143.82,94,141.92,94,139.27Z"/><path class="cls-1" d="M110.69,126a18.36,18.36,0,0,1,3.13-.24q1.75,0,2.73.06a19.71,19.71,0,0,1,2,.23,5.73,5.73,0,0,1,1.62.51,5.42,5.42,0,0,1,1.21.9,3.9,3.9,0,0,1,.9,1.35,10.79,10.79,0,0,1,.7,4,7.22,7.22,0,0,1-.66,3.46q-1.29,2.22-5.12,2.22h-6.6a8.46,8.46,0,0,0,.23,2.19,1.9,1.9,0,0,0,.86,1.19,3.39,3.39,0,0,0,1.31.47,37.19,37.19,0,0,0,3.73.1,38.38,38.38,0,0,0,5.86-.43v3.71a13.17,13.17,0,0,1-3.54.82l-2.44.2c-.44,0-1,0-1.64,0-.86,0-1.86,0-3,0-2.57,0-4.36-.8-5.35-2.42s-1.48-4.24-1.48-7.87.39-6.21,1.19-7.73A5.62,5.62,0,0,1,110.69,126Zm6.8,7a3.94,3.94,0,0,0-.53-2.52,2.92,2.92,0,0,0-2.13-.57,15.4,15.4,0,0,0-2.2.1,2.42,2.42,0,0,0-1.17.55,2.1,2.1,0,0,0-.73,1.34,10.39,10.39,0,0,0-.15,1.7v1h5.19C116.92,134.58,117.49,134.06,117.49,133Z"/><path class="cls-1" d="M135.85,127.67V125.2q0-4.1,2.23-5.82a9.21,9.21,0,0,1,5.5-1.56h2c1,0,2.47.11,4.41.31a29.46,29.46,0,0,1,4.67.82v4.3q-4.45-.39-7.09-.39h-2.83a5.43,5.43,0,0,0-2.58.47c-.55.31-.82,1.08-.82,2.3V127a2.8,2.8,0,0,0,.66,2.19,3.91,3.91,0,0,0,2.39.54h4.53q4.46,0,6,3.56a10,10,0,0,1,.78,4v1.92c0,3.49-1.15,5.77-3.47,6.83a10.24,10.24,0,0,1-4.42.86,41,41,0,0,1-11-1.17v-4.3q4.29.44,7.5.43c2.13,0,3.38,0,3.73-.08a4,4,0,0,0,1.07-.31,2,2,0,0,0,1.18-2.07v-1.52c0-1.36-.43-2.19-1.29-2.5a3.64,3.64,0,0,0-1.29-.2h-4.38Q135.85,135.24,135.85,127.67Z"/><path class="cls-1" d="M158.43,136.69a27.05,27.05,0,0,1,.31-4.51,10.4,10.4,0,0,1,1-3.09,5.15,5.15,0,0,1,1.83-2,11.9,11.9,0,0,1,6.33-1.37q5.35,0,7.4,2.35t2.05,8.34q0,6-2,8.22t-7.44,2.22c-3.54,0-6-.79-7.42-2.38S158.43,140.33,158.43,136.69Zm6.27-5.51a4.34,4.34,0,0,0-.65,1.93,29.12,29.12,0,0,0-.15,3.34,21.48,21.48,0,0,0,.19,3.29,3.54,3.54,0,0,0,.72,1.77,2.22,2.22,0,0,0,1.2.76,7.75,7.75,0,0,0,1.79.16,12.08,12.08,0,0,0,1.7-.08,2.91,2.91,0,0,0,1.1-.39,1.79,1.79,0,0,0,.76-1,11.83,11.83,0,0,0,.5-3.81c0-1.6,0-2.78-.09-3.52a9.92,9.92,0,0,0-.33-1.87,1.86,1.86,0,0,0-.75-1.08,4.69,4.69,0,0,0-2.52-.6,8.72,8.72,0,0,0-2.3.17A2.11,2.11,0,0,0,164.7,131.18Z"/><path class="cls-1" d="M180.61,139.27V116.06h5.47v22.35a6.93,6.93,0,0,0,.43,2.89,2.49,2.49,0,0,0,1.37,1.17,18.24,18.24,0,0,0,2.62.82v3.36H186a4.81,4.81,0,0,1-4-1.7C181.06,143.82,180.61,141.92,180.61,139.27Z"/><path class="cls-1" d="M198,125.91v13.9c0,1.85.76,2.78,2.3,2.78a7.26,7.26,0,0,0,3.44-.75,12.56,12.56,0,0,0,1.56-1.05V125.91h5.47v20.74h-4.41l-1.06-2.19-1,.59-1,.6c-.24.15-.54.32-.92.51a6.16,6.16,0,0,1-1.07.45,8.68,8.68,0,0,1-2.66.39q-6.18,0-6.17-7.3V125.91Z"/><path class="cls-1" d="M213.11,130.05V127l3.36-1.13.9-5.78h4.57v5.78h4.65v4.18h-4.65v8.32a6.92,6.92,0,0,0,.43,2.93,2.47,2.47,0,0,0,1.33,1.17,18.24,18.24,0,0,0,2.62.82v3.36h-4.77q-5.07,0-5.08-7.42v-9.18Z"/><path class="cls-1" d="M228.89,122.82v-3.44c0-.67.32-1,.94-1h4.1c.58,0,.86.34.86,1v3.44c0,.6-.28.9-.86.9h-4.1a1,1,0,0,1-.68-.23A.87.87,0,0,1,228.89,122.82Zm.2,23.83V125.91h5.47v20.74Z"/><path class="cls-1" d="M237.76,136.69a27.05,27.05,0,0,1,.31-4.51,10.7,10.7,0,0,1,1-3.09,5.1,5.1,0,0,1,1.84-2,11.89,11.89,0,0,1,6.32-1.37q5.35,0,7.41,2.35c1.36,1.56,2.05,4.34,2.05,8.34s-.67,6.73-2,8.22-3.82,2.22-7.44,2.22-6-.79-7.42-2.38S237.76,140.33,237.76,136.69Zm6.27-5.51a4.22,4.22,0,0,0-.64,1.93,26.66,26.66,0,0,0-.16,3.34,21.48,21.48,0,0,0,.19,3.29,3.54,3.54,0,0,0,.73,1.77,2.2,2.2,0,0,0,1.19.76,7.79,7.79,0,0,0,1.8.16,11.92,11.92,0,0,0,1.69-.08,2.85,2.85,0,0,0,1.1-.39,1.79,1.79,0,0,0,.76-1,11.52,11.52,0,0,0,.51-3.81c0-1.6,0-2.78-.1-3.52a9.18,9.18,0,0,0-.33-1.87,1.89,1.89,0,0,0-.74-1.08,4.69,4.69,0,0,0-2.52-.6,8.85,8.85,0,0,0-2.31.17A2.18,2.18,0,0,0,244,131.18Z"/><path class="cls-1" d="M272,125.56q6.21,0,6.21,7.26v13.83h-5.47V132.74c0-1.87-.77-2.81-2.3-2.81a7.67,7.67,0,0,0-2.66.41,9,9,0,0,0-2.34,1.39v14.92H260V125.91h4.37l1.1,2.22a12.68,12.68,0,0,1,4.53-2.38A9.6,9.6,0,0,1,272,125.56Z"/><path class="cls-1" d="M286.2,125.71q9.26,0,11.09,1.06v3.43h-9.41a1.88,1.88,0,0,0-1.29.32,1.58,1.58,0,0,0-.31,1.13v.94q0,.9.39,1.11a2.63,2.63,0,0,0,1.21.22h4.92a6.06,6.06,0,0,1,3.16.74,4.83,4.83,0,0,1,2.35,4.61v2.15c0,2-.49,3.34-1.45,4.17a5.31,5.31,0,0,1-3.63,1.25q-9.84,0-11.56-1.13v-3.4h9.8a1.19,1.19,0,0,0,1.37-1.32v-1a1.45,1.45,0,0,0-.3-1,1.47,1.47,0,0,0-1.07-.31h-4.84q-5.82,0-5.82-5.59V131.3C280.81,127.57,282.6,125.71,286.2,125.71Z"/></svg>