<?xml version="1.0" encoding="UTF-8"?>
<svg width="358px" height="176px" viewBox="0 0 358 176" version="1.1" xmlns="http://www.w3.org/2000/svg" xmlns:xlink="http://www.w3.org/1999/xlink">
    <!-- Generator: Sketch 48.2 (47327) - http://www.bohemiancoding.com/sketch -->
    <title>Group</title>
    <desc>Created with Sketch.</desc>
    <defs></defs>
    <g id="Artboard-2-Copy" stroke="none" stroke-width="1" fill="none" fill-rule="evenodd" transform="translate(-208.000000, -488.000000)">
        <g id="Group" transform="translate(208.000000, 488.000000)" fill="#FFFFFF">
            <path d="M180.629605,0 C161.143769,0 145.54937,13.0104885 145.54937,31.8258686 C145.54937,50.6401005 158.737842,58.9961131 169.678566,58.9961131 L204.447028,58.9961131 C208.043884,58.9961131 208.792369,62.2981044 208.792369,64.1006518 C208.792369,65.9020511 207.893729,70.2545715 203.847552,70.2545715 C200.818078,70.2545715 154.566727,70.171907 131.502374,70.1282784 L134.457344,0 L99.0894056,0 L71.0630424,57.3451175 L64.6189618,0 L27.9007696,0 L1,96 L34.5706566,96 L45.2855739,43.8340489 L54.0530539,96 L75.4851809,96 L103.586049,44.584919 L96.3911904,96 L114.825937,96 L130.410021,96 L199.542328,96 C223.422794,96 233.721631,81.5141781 233.721631,63.0994917 C233.721631,44.6859535 218.535287,36.4780482 206.944654,36.4780482 L174.273784,36.4780482 C170.775504,36.4780482 169.777141,32.6754769 169.777141,30.8752257 C169.777141,29.0726783 171.575569,25.270107 175.771901,25.270107 L274.247585,25.270107 L274.249877,25.2551815 L284.13722,25.2448484 L253.609792,34.9051247 L236.383167,96 L258.768954,96 L269.713116,96 L298.023743,96 C346.068937,96 350.742099,81.3913293 356.768954,45.8639239 C357.596529,40.9867129 357.988538,36.6089338 358,32.6823656 L358,32.3758177 C357.936958,5.62004425 339.982479,0 320.94711,0 L180.629605,0 Z M286.285246,25.2287747 L311.857541,25.2287747 L316.440151,25.2287747 C324.218438,25.2287747 327.465695,31.0853316 326.396267,40.2059917 C324.970362,52.3760569 320.856558,70.7712253 307.661208,70.7712253 L300.160308,70.7712253 L275.620763,70.7712253 L286.285246,25.2287747 Z" id="Fill-1"></path>
            <path d="M41,133.44 C41,136.32 40.4,138.44 37.4,140.36 C34.08,142.44 31.28,142 27.28,142 L13.12,142 C9,142 6.28,141.64 3,139.24 C0.04,137.04 0.12,130.96 0.12,127.96 L0.12,122.8 C0.12,118.32 0.6,114 3.52,111.8 C6.24,109.76 11.84,109.64 13.72,109.64 L28.92,109.64 C29.68,109.64 34.96,109.84 36.68,110.96 C39.84,113.16 40.48,115.8 40.48,119.32 L40.48,121.4 L31,121.4 C31.2,120.24 30.72,118.96 30.2,118.16 C29.6,117.32 27.72,117.28 26.24,117.28 L15.88,117.28 C15.04,117.28 12.96,117.12 11.76,117.92 C10.52,118.76 10,119.8 10,121.28 L10,128.92 C10,130.56 10.16,131.72 11.2,132.92 C11.88,133.76 14,134.4 15,134.4 L26.52,134.4 C27.96,134.4 29.36,133.96 30.12,133.36 C31.24,132.48 31.72,131.12 31.52,129.64 L41,129.64 L41,133.44 Z M101.725713,130.88 C101.725713,134 101.205713,136.16 99.2457127,138.6 C96.0857127,142.48 88.3257127,142 86.8057127,142 L74.1257127,142 C71.8857127,142 66.9657127,142.24 64.0457127,139.44 C61.3257127,136.84 60.8457127,132.32 60.8457127,130.16 L60.8457127,109.64 L70.7257127,109.64 L70.7257127,129.32 C70.7257127,130.72 70.8457127,131.76 71.6857127,132.84 C72.6857127,134.12 74.1657127,134.4 75.8857127,134.4 L86.3257127,134.4 C88.0857127,134.4 89.3257127,134.48 90.6857127,133.24 C91.6857127,132.32 91.9257127,131.28 91.9257127,129.96 L91.9257127,109.64 L101.725713,109.64 L101.725713,130.88 Z M159.771425,132.76 C159.771425,134.8 159.811425,136.92 157.691425,139.24 C155.011425,142.28 148.451425,142 146.931425,142 L132.651425,142 C129.491425,142 126.291425,141.6 124.651425,140.48 C122.851425,139.28 122.011425,137.12 122.011425,135.6 L122.011425,131.44 L131.211425,131.44 L131.211425,132.36 C131.211425,133.12 131.291425,133.68 131.731425,134.24 C132.331425,135.12 133.331425,135.12 134.411425,135.12 L146.891425,135.12 C148.091425,135.12 149.091425,135.04 150.051425,134.4 C150.771425,133.88 150.891425,133.36 150.891425,132.64 L150.891425,131.88 C150.891425,131.16 150.331425,130.2 149.651425,129.84 C148.971425,129.44 147.571425,129.44 146.251425,129.4 L132.171425,129.08 C129.051425,129.08 125.971425,128.68 124.331425,127.24 C121.851425,125.12 121.731425,121.96 121.731425,120.96 L121.731425,119.36 C121.771425,116.32 122.291425,113.08 125.211425,111.36 C127.851425,109.84 130.651425,109.64 136.171425,109.64 L146.251425,109.64 C149.851425,109.64 155.891425,110.32 157.571425,113.28 C158.531425,114.92 158.811425,116.16 158.811425,118.08 L158.811425,119.96 L149.731425,119.96 L149.731425,118.72 C149.731425,118.04 149.451425,117.64 148.931425,117.24 C148.411425,116.84 147.811425,116.76 147.091425,116.76 L134.571425,116.76 C133.651425,116.76 132.971425,116.68 132.251425,117.24 C131.571425,117.72 131.131425,118.44 131.131425,119.2 L131.131425,119.8 C131.131425,120.52 131.331425,121.2 131.891425,121.68 C132.491425,122.16 133.131425,122.12 133.891425,122.12 L149.731425,122.28 C152.451425,122.32 155.211425,122.72 156.611425,123.6 C159.131425,125.16 159.771425,128.28 159.771425,131.28 L159.771425,132.76 Z M216.817138,117.28 L202.617138,117.28 L202.617138,142 L192.617138,142 L192.617138,117.28 L178.617138,117.28 L178.617138,109.64 L216.817138,109.64 L216.817138,117.28 Z M280.022851,127.32 C280.022851,130.96 280.182851,136.76 276.822851,139.4 C274.382851,141.32 270.622851,142 266.542851,142 L248.182851,142 C244.382851,142 241.502851,141.52 238.342851,139.12 C235.462851,136.88 235.862851,130.52 235.862851,127.48 L235.862851,123.56 C235.862851,120.52 235.742851,114.68 239.222851,111.8 C241.982851,109.56 244.822851,109.64 248.502851,109.64 L265.902851,109.64 C269.942851,109.64 272.902851,109.76 276.102851,112.12 C280.422851,115.32 280.022851,120.96 280.022851,123.56 L280.022851,127.32 Z M269.182851,129.92 L269.182851,121.48 C269.182851,120.12 268.902851,119.08 267.862851,118.2 C266.822851,117.32 265.622851,117.28 264.142851,117.28 L251.662851,117.28 C250.822851,117.28 248.742851,117.12 247.582851,117.96 C246.022851,118.96 245.822851,120.56 245.822851,122.44 L245.822851,129.04 C245.822851,130.64 245.782851,131.88 246.782851,133.08 C247.502851,133.88 249.822851,134.4 250.822851,134.4 L264.182851,134.4 C265.662851,134.4 266.982851,134 267.782851,133.4 C268.902851,132.56 269.182851,131.36 269.182851,129.92 Z M353.828563,142 L343.948563,142 L343.948563,118 L330.668563,142 L323.588563,142 L309.748563,118.72 L309.748563,142 L299.868563,142 L299.868563,109.64 L315.308563,109.64 L326.748563,130.76 L338.068563,109.64 L353.828563,109.64 L353.828563,142 Z" id="CUSTOM-Copy"></path>
            <path d="M27.875,169.65 C27.875,171.45 27.5,172.775 25.625,173.975 C23.55,175.275 21.8,175 19.3,175 L10.45,175 C7.875,175 6.175,174.775 4.125,173.275 C2.275,171.9 2.325,168.1 2.325,166.225 L2.325,163 C2.325,160.2 2.625,157.5 4.45,156.125 C6.15,154.85 9.65,154.775 10.825,154.775 L20.325,154.775 C20.8,154.775 24.1,154.9 25.175,155.6 C27.15,156.975 27.55,158.625 27.55,160.825 L27.55,162.125 L21.625,162.125 C21.75,161.4 21.45,160.6 21.125,160.1 C20.75,159.575 19.575,159.55 18.65,159.55 L12.175,159.55 C11.65,159.55 10.35,159.45 9.6,159.95 C8.825,160.475 8.5,161.125 8.5,162.05 L8.5,166.825 C8.5,167.85 8.6,168.575 9.25,169.325 C9.675,169.85 11,170.25 11.625,170.25 L18.825,170.25 C19.725,170.25 20.6,169.975 21.075,169.6 C21.775,169.05 22.075,168.2 21.95,167.275 L27.875,167.275 L27.875,169.65 Z M63.404546,165.825 C63.404546,168.1 63.504546,171.725 61.404546,173.375 C59.879546,174.575 57.529546,175 54.979546,175 L43.504546,175 C41.129546,175 39.329546,174.7 37.354546,173.2 C35.554546,171.8 35.804546,167.825 35.804546,165.925 L35.804546,163.475 C35.804546,161.575 35.729546,157.925 37.904546,156.125 C39.629546,154.725 41.404546,154.775 43.704546,154.775 L54.579546,154.775 C57.104546,154.775 58.954546,154.85 60.954546,156.325 C63.654546,158.325 63.404546,161.85 63.404546,163.475 L63.404546,165.825 Z M56.629546,167.45 L56.629546,162.175 C56.629546,161.325 56.454546,160.675 55.804546,160.125 C55.154546,159.575 54.404546,159.55 53.479546,159.55 L45.679546,159.55 C45.154546,159.55 43.854546,159.45 43.129546,159.975 C42.154546,160.6 42.029546,161.6 42.029546,162.775 L42.029546,166.9 C42.029546,167.9 42.004546,168.675 42.629546,169.425 C43.079546,169.925 44.529546,170.25 45.154546,170.25 L53.504546,170.25 C54.429546,170.25 55.254546,170 55.754546,169.625 C56.454546,169.1 56.629546,168.35 56.629546,167.45 Z M104.984092,175 L98.8090919,175 L98.8090919,160 L90.5090919,175 L86.0840919,175 L77.4340919,160.45 L77.4340919,175 L71.2590919,175 L71.2590919,154.775 L80.9090919,154.775 L88.0590919,167.975 L95.1340919,154.775 L104.984092,154.775 L104.984092,175 Z M146.563638,175 L140.388638,175 L140.388638,160 L132.088638,175 L127.663638,175 L119.013638,160.45 L119.013638,175 L112.838638,175 L112.838638,154.775 L122.488638,154.775 L129.638638,167.975 L136.713638,154.775 L146.563638,154.775 L146.563638,175 Z M176.568184,175 L154.418184,175 L154.418184,154.775 L176.168184,154.775 L176.168184,159.5 L160.543184,159.5 L160.543184,162.9 L175.418184,162.9 L175.418184,166.875 L160.593184,166.875 L160.593184,170.25 L176.568184,170.25 L176.568184,175 Z M208.67273,175 L202.57273,175 L202.57273,171.4 C202.57273,170.8 202.32273,170.4 201.87273,170.05 C201.47273,169.75 201.14773,169.65 200.62273,169.65 L190.47273,169.65 L190.47273,175.025 L184.47273,175 L184.47273,154.775 L202.62273,154.775 C204.17273,154.775 205.29773,154.85 206.57273,155.75 C208.02273,156.8 208.67273,158.15 208.67273,159.95 L208.67273,162.9 C208.67273,164.175 208.42273,165.3 207.44773,166 C206.62273,166.55 205.19773,167 205.02273,167 C205.32273,167 207.22273,167.575 207.97273,168.625 C208.52273,169.425 208.67273,170.125 208.67273,171.125 L208.67273,175 Z M202.82273,163.025 L202.82273,161.525 C202.82273,160.925 202.79773,160.475 202.37273,160.025 C201.92273,159.55 201.42273,159.55 200.77273,159.55 L190.47273,159.55 L190.47273,164.9 L200.42273,164.9 C201.14773,164.9 201.72273,164.85 202.24773,164.35 C202.62273,163.975 202.82273,163.6 202.82273,163.025 Z M242.177276,169.65 C242.177276,171.45 241.802276,172.775 239.927276,173.975 C237.852276,175.275 236.102276,175 233.602276,175 L224.752276,175 C222.177276,175 220.477276,174.775 218.427276,173.275 C216.577276,171.9 216.627276,168.1 216.627276,166.225 L216.627276,163 C216.627276,160.2 216.927276,157.5 218.752276,156.125 C220.452276,154.85 223.952276,154.775 225.127276,154.775 L234.627276,154.775 C235.102276,154.775 238.402276,154.9 239.477276,155.6 C241.452276,156.975 241.852276,158.625 241.852276,160.825 L241.852276,162.125 L235.927276,162.125 C236.052276,161.4 235.752276,160.6 235.427276,160.1 C235.052276,159.575 233.877276,159.55 232.952276,159.55 L226.477276,159.55 C225.952276,159.55 224.652276,159.45 223.902276,159.95 C223.127276,160.475 222.802276,161.125 222.802276,162.05 L222.802276,166.825 C222.802276,167.85 222.902276,168.575 223.552276,169.325 C223.977276,169.85 225.302276,170.25 225.927276,170.25 L233.127276,170.25 C234.027276,170.25 234.902276,169.975 235.377276,169.6 C236.077276,169.05 236.377276,168.2 236.252276,167.275 L242.177276,167.275 L242.177276,169.65 Z M257.056822,175 L250.631822,175 L250.631822,154.775 L257.056822,154.775 L257.056822,175 Z M295.286368,175 L288.361368,175 L286.336368,171.4 L273.661368,171.4 L271.786368,175 L265.036368,175 L276.186368,154.775 L284.161368,154.775 L295.286368,175 Z M283.936368,167.15 L279.961368,159.675 L275.836368,167.15 L283.936368,167.15 Z M323.440914,175 L302.390914,175 L302.390914,154.775 L308.315914,154.775 L308.315914,170.25 L323.440914,170.25 L323.440914,175 Z M354.39546,169.225 C354.39546,170.5 354.42046,171.825 353.09546,173.275 C351.42046,175.175 347.32046,175 346.37046,175 L337.44546,175 C335.47046,175 333.47046,174.75 332.44546,174.05 C331.32046,173.3 330.79546,171.95 330.79546,171 L330.79546,168.4 L336.54546,168.4 L336.54546,168.975 C336.54546,169.45 336.59546,169.8 336.87046,170.15 C337.24546,170.7 337.87046,170.7 338.54546,170.7 L346.34546,170.7 C347.09546,170.7 347.72046,170.65 348.32046,170.25 C348.77046,169.925 348.84546,169.6 348.84546,169.15 L348.84546,168.675 C348.84546,168.225 348.49546,167.625 348.07046,167.4 C347.64546,167.15 346.77046,167.15 345.94546,167.125 L337.14546,166.925 C335.19546,166.925 333.27046,166.675 332.24546,165.775 C330.69546,164.45 330.62046,162.475 330.62046,161.85 L330.62046,160.85 C330.64546,158.95 330.97046,156.925 332.79546,155.85 C334.44546,154.9 336.19546,154.775 339.64546,154.775 L345.94546,154.775 C348.19546,154.775 351.97046,155.2 353.02046,157.05 C353.62046,158.075 353.79546,158.85 353.79546,160.05 L353.79546,161.225 L348.12046,161.225 L348.12046,160.45 C348.12046,160.025 347.94546,159.775 347.62046,159.525 C347.29546,159.275 346.92046,159.225 346.47046,159.225 L338.64546,159.225 C338.07046,159.225 337.64546,159.175 337.19546,159.525 C336.77046,159.825 336.49546,160.275 336.49546,160.75 L336.49546,161.125 C336.49546,161.575 336.62046,162 336.97046,162.3 C337.34546,162.6 337.74546,162.575 338.22046,162.575 L348.12046,162.675 C349.82046,162.7 351.54546,162.95 352.42046,163.5 C353.99546,164.475 354.39546,166.425 354.39546,168.3 L354.39546,169.225 Z" id="COMMERCIALS-Copy"></path>
        </g>
    </g>
</svg>