<?xml version="1.0" encoding="UTF-8"?>
<svg width="151px" height="73px" viewBox="0 0 151 73" version="1.1" xmlns="http://www.w3.org/2000/svg" xmlns:xlink="http://www.w3.org/1999/xlink">
    <!-- Generator: Sketch 48.1 (47250) - http://www.bohemiancoding.com/sketch -->
    <title>Group</title>
    <desc>Created with Sketch.</desc>
    <defs></defs>
    <g id="Artboard" stroke="none" stroke-width="1" fill="none" fill-rule="evenodd" transform="translate(-512.000000, -69.000000)">
        <g id="Group" transform="translate(511.000000, 69.000000)">
            <g id="msd-logo-main-copy" transform="translate(0.954245, 0.940875)" fill="#1A5798" fill-rule="nonzero">
                <path d="M98.3434547,31.2963259 C97.3306438,29.6300201 96.0464312,28.1447267 94.5439007,26.9018418 C93.2886541,25.9715421 91.9497289,25.1598187 90.5443703,24.4771264 C88.0996573,23.2272732 78.7707525,19.4527163 76.7959843,18.6028161 C75.1861733,17.9078976 74.6912314,17.3079681 74.3262742,16.5630555 C74.1350161,16.1004382 74.0397662,15.6037783 74.0463071,15.1032269 C74.0425807,14.6136061 74.1342782,14.1279489 74.3162754,13.6733948 C74.7030629,12.7675151 75.443714,12.0593804 76.3660348,11.7136248 C76.9118186,11.5473429 77.4803835,11.4680475 78.050837,11.4786524 L124.915335,11.4786524 C129.607425,11.4606925 133.985166,13.8351879 136.528972,17.7779129 C138.648723,20.7175678 138.75871,24.3821376 138.75871,26.6168752 C138.75871,30.6164057 137.958804,34.2059843 136.533971,36.4157249 C133.089376,41.7650969 127.285057,41.7900939 124.915335,41.7900939 L114.856516,41.7900939 L114.856516,16.1631025 L112.701769,16.1631025 L112.701769,43.9398416 L124.930333,43.9398416 C132.959391,43.9398416 136.269002,40.8602031 138.563733,37.1706362 C139.993565,34.8759056 140.863463,30.946367 140.863463,26.6168752 C140.863463,23.9471886 140.768474,20.1176382 138.228772,16.4330708 C133.844287,9.81884729 126.860107,9.32390539 124.930333,9.32390539 L78.0808335,9.32390539 C77.2468384,9.32578173 76.4177965,9.45216007 75.6211222,9.69886137 C74.1456915,10.2554931 72.9624103,11.3918044 72.3465067,12.8434922 C72.0497754,13.5666035 71.90021,14.3416242 71.9065583,15.1232246 C71.9061588,15.9110697 72.0625091,16.6911216 72.3665043,17.4179552 C72.9714333,18.7727961 74.081303,19.7926764 75.9460841,20.5725848 C78.0258399,21.4674798 87.2397582,25.1970419 89.5744841,26.3919016 C90.851686,27.0213385 92.0726665,27.7589445 93.2240557,28.5966428 C94.2639336,29.5465313 95.8187511,31.0963494 96.4586759,32.3312044 C97.2824604,33.8377604 97.734934,35.5191112 97.778521,37.2356286 C97.8737306,38.8661697 97.658268,40.4999533 97.1435955,42.0500634 C96.0635384,45.2232336 93.7466115,47.8250434 90.7193497,49.2642165 C88.9895528,50.0841202 86.619831,50.3490891 84.8350405,50.3490891 L50.2790973,50.3490891 L50.2790973,17.7779129 C50.3311798,15.7049834 49.6771505,13.6759058 48.4243151,12.0235885 C46.2395716,9.10393122 42.1650499,8.02405799 38.7304531,9.14892593 C35.1508734,10.3487851 32.8511433,14.148339 32.8511433,17.7779129 L32.8511433,52.5538303 L34.9958916,52.5538303 L34.9958916,17.7779129 C34.9958916,14.5332938 36.8456744,12.0485855 39.4203721,11.1836871 C42.066069,10.273335 44.9979273,11.1428518 46.7195152,13.3484329 C47.6192733,14.6513805 48.1069522,16.1945357 48.1193509,17.7779129 L48.1193509,52.5238338 L84.8900341,52.5238338 C87.2107363,52.528809 89.5072207,52.052148 91.6342423,51.1239981 C95.1894505,49.4742997 97.9164591,46.4438888 99.1833561,42.734983 C99.7187305,40.9146537 99.9699914,39.0226085 99.9282686,37.1256415 C99.8527502,35.0869062 99.3105756,33.0926615 98.3434547,31.2963259 Z" id="Shape"></path>
                <path d="M15.8781359,8.84396174 C12.7795056,9.4966664 10.2663107,11.7562536 9.2889095,14.7682662 C8.99855382,15.7410611 8.86027143,16.7528835 8.87895763,17.7679141 L8.87895763,52.513835 L11.0337047,52.513835 L11.0337047,17.7779129 C11.019794,16.9806784 11.1225356,16.1856942 11.3386689,15.4181899 C12.0794156,13.1515342 13.9708074,11.4506148 16.3030861,10.9537141 C18.6486932,10.4840971 21.0650819,11.3175983 22.6223442,13.1334582 C23.3722561,14.0333525 24.2071581,15.3032034 24.2071581,17.7779129 L24.2071581,52.5538303 L26.3519063,52.5538303 L26.3519063,17.7779129 C26.3519063,14.5882874 25.2570349,12.9234828 24.2571523,11.7386219 C22.1928045,9.32995354 18.9890574,8.22316979 15.8781359,8.84396174 Z" id="Shape"></path>
                <path d="M38.0205365,7.09916657 C40.1632454,6.36570507 42.480136,6.31158027 44.6547576,6.94418477 C46.8446732,7.56184521 48.7746558,8.87423333 50.154112,10.6837458 C51.7476742,12.6983351 52.5686375,15.2161924 52.4688403,17.7829123 L52.4688403,48.2793321 L84.8550382,48.2793321 C86.5651409,48.3575363 88.2682489,48.0141677 89.814456,47.2794495 C92.3084138,46.108585 94.2143386,43.9678069 95.0888368,41.355145 C95.5056038,40.0652896 95.6752186,38.7083708 95.5887781,37.3556145 C95.5496649,35.9685475 95.1885285,34.6095791 94.5339019,33.3860805 C93.8565215,32.1958476 92.948992,31.1523586 91.8642153,30.3164409 C90.8229899,29.5575692 89.7191459,28.8885729 88.5646027,28.3166757 C86.3348645,27.1768095 77.2359327,23.4922421 75.0661874,22.5523524 C72.8964421,21.6124627 71.2116399,20.2426236 70.3667391,18.2778542 C69.5303902,16.2700187 69.5214053,14.013022 70.341742,11.9985914 C71.1855104,9.99798198 72.8113811,8.42992 74.8412138,7.65910084 C75.8695496,7.28981774 76.9589022,7.12013665 78.050837,7.15915953 L124.915335,7.15915953 C128.984857,7.15416012 135.984036,9.0589365 139.983566,15.0932281 C141.683367,17.5929346 143.033208,21.0575279 143.033208,26.6168752 C143.033208,30.3764339 142.218304,35.085881 140.903458,37.4406045 C139.403634,40.0952929 135.974037,46.1145862 124.930333,46.1145862 L110.532024,46.1145862 L110.532024,16.1631025 L108.377277,16.1631025 L108.377277,48.2893309 L124.930333,48.2893309 C132.8794,48.2893309 139.388636,45.0847071 142.823233,38.4154901 C144.648019,34.8609074 145.182956,30.6264045 145.187955,26.6168752 C145.187955,20.8275549 144.188073,17.5079446 141.948336,14.0733478 C138.13718,8.41758452 131.770316,5.01880265 124.950331,4.99941308 L78.0658352,4.99941308 C76.716772,4.98632592 75.3755723,5.20619472 74.1013007,5.64933678 C71.5101597,6.62543042 69.4334491,8.62261519 68.356975,11.1736882 C67.3064719,13.7293296 67.3226754,16.5991365 68.4019697,19.1427527 C69.481843,21.7174504 71.8315671,23.5722327 74.2012889,24.53212 C76.5710107,25.4920073 85.4849642,29.1565771 87.599716,30.2414497 C88.6338759,30.7450341 89.6253622,31.3319003 90.5643679,31.9962437 C91.4172985,32.6535677 92.1324807,33.4723749 92.6691208,34.4059608 C93.639007,36.175753 93.6989999,38.6604613 93.0490762,40.6502277 C92.3218947,42.6964629 90.8238466,44.3775061 88.8745663,45.3346778 C87.6223667,45.9513382 86.2260045,46.2157484 84.8350405,46.099588 L54.6035897,46.099588 L54.6035897,17.7779129 C54.6035897,14.0683484 53.4937199,11.4686536 51.8339148,9.35390187 C48.4153023,4.97136552 42.5884338,3.24741616 37.3356169,5.06440545 C34.770918,5.92930391 30.946367,8.49900223 29.6065243,12.2935568 C29.0905048,11.0761267 28.396328,9.94219236 27.5467661,8.92895176 C24.466671,5.31964324 19.6711446,3.66509771 15.0207172,4.60723256 C10.3702897,5.54936741 6.59685251,8.93990801 5.16439371,13.4634194 C4.73880155,14.8613027 4.53303677,16.3168355 4.55446532,17.7779129 L4.55446532,52.5238338 L6.70921235,52.5238338 L6.70921235,17.7779129 C6.67498411,16.5373041 6.84385958,15.2994469 7.20915366,14.1133431 C8.40369646,10.3340984 11.5549495,7.50070571 15.4394658,6.7132055 C19.323982,5.92570529 23.3299011,7.3081388 25.9019592,10.323788 C27.6810022,12.3929106 28.6162146,15.0557672 28.5216516,17.7829123 L28.5216516,52.5538303 L30.6713992,52.5538303 L30.6713992,17.7779129 C30.6813981,12.4035438 33.7560371,8.49900223 38.0205365,7.09916657 Z" id="Shape"></path>
                <path d="M145.482921,11.448656 C138.538736,1.34984153 127.77,0.77990844 124.930333,0.674920766 L78.0658352,0.674920766 C76.1960932,0.698926267 74.3412131,1.01088338 72.5664808,1.59981219 C66.9038698,3.72024361 63.1773924,9.16202009 63.2475749,15.2082146 C63.2570215,17.1558361 63.6565004,19.0818346 64.4224369,20.8725496 C65.2213542,22.7133938 66.4162334,24.3554993 67.9220261,25.681985 C68.6247415,26.306846 69.3846652,26.864235 70.1917596,27.3467895 C70.9202398,27.7800519 71.6768337,28.1641945 72.4564938,28.4966546 C74.9562003,29.5765278 85.7649314,33.2510964 88.3396291,35.8907865 C89.0339458,36.7616469 89.2906455,37.9027743 89.0361473,38.9870733 C88.7816491,40.0713722 88.0440519,40.9791259 87.0347823,41.4501338 C86.334252,41.7199879 85.5847286,41.8392302 84.8350405,41.8000928 L58.928082,41.8000928 L58.928082,17.80291 C59.0591909,12.1228318 56.401418,6.73834172 51.8128553,3.38788351 C47.2242926,0.0374252938 41.2862095,-0.854572174 35.9157836,0.999882616 C33.5606555,1.80954385 31.4096037,3.12132719 29.6115237,4.84443127 C25.2768816,0.694782497 19.1072364,-0.923330259 13.2939673,0.564825954 C7.48069815,2.05298217 2.84744418,6.43656148 1.03987792,12.1585726 C0.482823329,13.9789544 0.209648631,15.8743146 0.229973002,17.7779129 L0.228917028,52.5238338 L2.38472004,52.5238338 L2.38472004,17.7779129 C2.30544169,16.0914739 2.54632656,14.4052798 3.0946367,12.8084963 C4.78651748,7.54331863 9.17851417,3.59434074 14.5932868,2.46971006 C19.8826658,1.37983801 26.0069468,3.65457096 29.591526,7.96906445 C31.4768434,5.74725215 33.8930245,4.03786849 36.6157014,2.99964785 C41.3284881,1.3838821 46.5336161,2.17559328 50.5528637,5.11952025 C54.5721113,8.06344721 56.897145,12.7872574 56.7783343,17.7679141 L56.7783343,43.9398416 L84.8350405,43.9398416 C85.8917975,43.9909304 86.9475702,43.8206445 87.9346766,43.4399002 C89.3725244,42.7463469 90.4726632,41.5057649 90.989318,39.9953046 C91.4892593,38.6254654 91.3692734,36.4457213 90.759345,35.460837 C90.4725197,34.9470365 90.0986799,34.486926 89.6544747,34.1009966 C88.7141346,33.351508 87.690894,32.712402 86.6048328,32.1962202 C84.6050675,31.1663411 75.7261099,27.5767625 73.3263916,26.541884 C70.7016998,25.4920073 67.7320484,23.2222738 66.4072039,20.042647 C65.0638571,16.9576899 65.0448009,13.4567288 66.3544855,10.3573309 C67.6641701,7.25793306 70.1879264,4.83146526 73.3363905,3.64457213 C74.8518474,3.09634436 76.4544731,2.82867537 78.0658352,2.85466487 L124.930333,2.85466487 C127.480034,2.94965372 137.31388,3.65457096 143.488155,12.4985327 C147.70266,18.4128384 147.372699,25.0470595 147.372699,26.6468717 C147.372699,34.0909978 145.872875,37.0656486 144.832997,39.3553798 C144.268063,40.5902348 139.543618,50.3540885 124.930333,50.3540885 L106.207531,50.3540885 L106.207531,16.1631025 L104.052784,16.1631025 L104.052784,52.5238338 L124.930333,52.5238338 C139.843583,52.5238338 144.89299,43.6448762 146.717776,40.4002571 C148.2176,37.7655664 149.502449,34.3509673 149.502449,26.6168752 C149.482451,23.8122045 149.792415,17.7779129 145.482921,11.448656 Z" id="Shape"></path>
            </g>
            <path d="M25.5742448,72.748875 L19.6142448,62.428875 L22.3542448,62.428875 L26.5342448,69.888875 L30.5142448,62.428875 L32.9142448,62.428875 L27.2342448,72.748875 L25.5742448,72.748875 Z M35.7059114,72.748875 L35.7059114,62.428875 L46.2659114,62.428875 L46.2659114,64.188875 L38.1059114,64.188875 L38.1059114,66.488875 L42.8659114,66.488875 L42.8659114,68.248875 L38.1059114,68.248875 L38.1059114,70.808875 L46.3659114,70.808875 L46.3659114,72.748875 L35.7059114,72.748875 Z M50.7975781,72.748875 L50.7975781,62.428875 L53.1975781,62.428875 L53.1975781,66.428875 L60.6975781,66.428875 L60.6975781,62.428875 L63.1175781,62.428875 L63.1175781,72.748875 L60.6975781,72.748875 L60.6975781,68.308875 L53.1975781,68.308875 L53.1975781,72.748875 L50.7975781,72.748875 Z M68.3892448,72.748875 L68.3892448,62.428875 L70.7892448,62.428875 L70.7892448,72.748875 L68.3892448,72.748875 Z M84.7209114,64.268875 L78.2409114,64.268875 L78.2409114,70.808875 L84.7209114,70.808875 L84.7209114,68.588875 L87.1209114,69.088875 L87.1209114,70.308875 C87.1209114,72.248875 86.5009114,72.748875 84.5609114,72.748875 L78.4009114,72.748875 C76.4609114,72.748875 75.8409114,72.248875 75.8409114,70.308875 L75.8409114,64.868875 C75.8409114,62.928875 76.4609114,62.428875 78.4009114,62.428875 L84.5609114,62.428875 C86.5009114,62.428875 87.1209114,62.928875 87.1209114,64.868875 L87.1209114,65.848875 L84.7209114,66.228875 L84.7209114,64.268875 Z M92.0725781,72.748875 L92.0725781,62.428875 L94.4725781,62.428875 L94.4725781,70.808875 L102.212578,70.808875 L102.212578,72.748875 L92.0725781,72.748875 Z M105.724245,72.748875 L105.724245,62.428875 L116.284245,62.428875 L116.284245,64.188875 L108.124245,64.188875 L108.124245,66.488875 L112.884245,66.488875 L112.884245,68.248875 L108.124245,68.248875 L108.124245,70.808875 L116.384245,70.808875 L116.384245,72.748875 L105.724245,72.748875 Z M129.755911,64.228875 L122.995911,64.228875 L122.995911,66.448875 L129.435911,66.448875 C131.375911,66.448875 132.015911,66.948875 132.015911,68.888875 L132.015911,70.308875 C132.015911,72.248875 131.375911,72.748875 129.435911,72.748875 L123.055911,72.748875 C121.115911,72.748875 120.475911,72.248875 120.475911,70.308875 L120.475911,70.028875 L122.595911,69.588875 L122.595911,70.808875 L129.895911,70.808875 L129.895911,68.448875 L123.455911,68.448875 C121.515911,68.448875 120.895911,67.948875 120.895911,66.008875 L120.895911,64.868875 C120.895911,62.928875 121.515911,62.428875 123.455911,62.428875 L129.315911,62.428875 C131.155911,62.428875 131.875911,62.908875 131.875911,64.688875 L131.875911,64.908875 L129.755911,65.408875 L129.755911,64.228875 Z" id="vehicles" fill="#23548E"></path>
            <path d="M15,67.5 L2.5,67.5" id="Line" stroke="#23548E" stroke-width="2" stroke-linecap="square"></path>
            <path d="M151,67.5 L138.5,67.5" id="Line-Copy" stroke="#23548E" stroke-width="2" stroke-linecap="square"></path>
        </g>
    </g>
</svg>