<svg id="Layer_1" data-name="Layer 1" xmlns="http://www.w3.org/2000/svg" viewBox="0 0 300.13 142.72"><defs><style>.cls-1{fill:#1a5798;}</style></defs><title>msd-logo-main</title><path class="cls-1" d="M197.71,62.6a35.06,35.06,0,0,0-7.59-8.79,50.73,50.73,0,0,0-8-4.84c-4.89-2.5-23.55-10.05-27.5-11.75-3.22-1.39-4.22-2.59-4.95-4.08a7.45,7.45,0,0,1-.56-2.92,7.31,7.31,0,0,1,.54-2.86,7.22,7.22,0,0,1,4.09-3.93,10.86,10.86,0,0,1,3.37-.47h93.74a27.5,27.5,0,0,1,23.23,12.61c4.24,5.87,4.47,13.21,4.47,17.68,0,8-1.6,15.18-4.46,19.6-6.89,10.7-18.49,10.75-23.24,10.75H230.74V32.33h-4.3V87.89h24.46c16.06,0,22.68-6.16,27.27-13.54,2.86-4.6,4.6-12.45,4.6-21.11,0-5.34-.18-13-5.27-20.37-8.77-13.23-22.74-14.22-26.6-14.22H157.18a16.79,16.79,0,0,0-4.92.75,11.39,11.39,0,0,0-7.43,10.85,11.74,11.74,0,0,0,.91,4.59c1.21,2.71,3.43,4.74,7.16,6.31,4.16,1.79,22.59,9.25,27.26,11.64a49.76,49.76,0,0,1,7.29,4.41c2.09,1.9,5.19,5,6.47,7.47a21.48,21.48,0,0,1,2.64,9.81,25.86,25.86,0,0,1-1.27,9.62,24.85,24.85,0,0,1-12.86,14.44c-3.46,1.64-8.2,2.17-11.76,2.17H101.57V35.56A18.31,18.31,0,0,0,97.86,24c-4.37-5.83-12.52-8-19.39-5.74-7.16,2.4-11.76,10-11.76,17.26v69.55H71V35.56c0-6.49,3.7-11.47,8.85-13.19a13.1,13.1,0,0,1,14.6,4.33,15.82,15.82,0,0,1,2.8,8.86v69.5H170.8a33.56,33.56,0,0,0,13.49-2.81,28.72,28.72,0,0,0,15.1-16.78,37,37,0,0,0,1.49-11.22A26.62,26.62,0,0,0,197.71,62.6Z"/><path class="cls-1" d="M32.76,17.69A17.7,17.7,0,0,0,19.58,29.54a20,20,0,0,0-.82,6v69.5h4.3V35.56a16.42,16.42,0,0,1,.61-4.73,13.39,13.39,0,0,1,9.93-8.93,13.25,13.25,0,0,1,12.64,4.37c1.5,1.79,3.16,4.34,3.16,9.29v69.56h4.29V35.56c0-6.39-2.19-9.72-4.19-12.09A17.57,17.57,0,0,0,32.76,17.69Z"/><path class="cls-1" d="M77.05,14.2a22,22,0,0,1,13.26-.3,21,21,0,0,1,11,7.47,21.56,21.56,0,0,1,4.63,14.2v61h64.79a20.89,20.89,0,0,0,9.91-2A20.16,20.16,0,0,0,191.2,82.72a21.43,21.43,0,0,0,1-8,17.9,17.9,0,0,0-2.11-7.94,20.59,20.59,0,0,0-5.33-6.14,46.2,46.2,0,0,0-6.61-4c-4.45-2.28-22.66-9.65-27-11.53s-7.7-4.62-9.39-8.55A16.44,16.44,0,0,1,141.7,24a15.87,15.87,0,0,1,9-8.68,17.08,17.08,0,0,1,6.42-1h93.74C259,14.31,273,18.12,281,30.19c3.41,5,6.11,11.94,6.11,23.05,0,7.52-1.63,16.94-4.27,21.65-3,5.31-9.86,17.35-31.95,17.35h-28.8V32.33h-4.3V96.59h33.11c15.9,0,28.92-6.41,35.79-19.76,3.65-7.1,4.72-15.58,4.73-23.6,0-11.58-2-18.22-6.48-25.1a41.13,41.13,0,0,0-34-18.14H157.15a23.4,23.4,0,0,0-7.93,1.3,20.18,20.18,0,0,0-11.48,11,20.7,20.7,0,0,0,.08,15.94c2.17,5.15,6.86,8.85,11.6,10.77,4.59,2,22.57,9.25,26.8,11.42A42.86,42.86,0,0,1,182.15,64a16.48,16.48,0,0,1,4.21,4.82c1.94,3.54,2.07,8.51.76,12.5a16.66,16.66,0,0,1-8.34,9.37,15.46,15.46,0,0,1-8.08,1.52H110.22V35.56c0-7.42-2.23-12.63-5.54-16.85a26,26,0,0,0-29-8.59C70.55,11.86,62.9,17,60.22,24.59a26.71,26.71,0,0,0-4.12-6.73,26.11,26.11,0,0,0-44.77,9.07,28.35,28.35,0,0,0-1.22,8.64v69.5h4.3V35.56a23.1,23.1,0,0,1,1-7.34,21.81,21.81,0,0,1,37.39-7.57c2.49,2.95,5.24,7.38,5.24,14.91v69.55h4.3V35.56C62.37,24.81,68.52,17,77.05,14.2Z"/><path class="cls-1" d="M292,22.9C278.11,2.7,256.57,1.56,250.89,1.35H157.15a36.32,36.32,0,0,0-11,1.85,29,29,0,0,0-16.29,38.54,27.42,27.42,0,0,0,7,9.62,30.23,30.23,0,0,0,4.54,3.33A38.11,38.11,0,0,0,145.93,57c5,2.16,26.62,9.51,31.77,14.79a7.26,7.26,0,0,1-2.61,11.12,10.67,10.67,0,0,1-4.39.7H118.87v-48A34.65,34.65,0,0,0,60.23,9.69,34.73,34.73,0,0,0,3.08,24.32,37,37,0,0,0,1.46,35.56v69.5h4.3V35.56a26.87,26.87,0,0,1,1.42-9.95,30.71,30.71,0,0,1,23-20.67c10.58-2.19,22.82,2.37,30,11A34.55,34.55,0,0,1,74.24,6a30.45,30.45,0,0,1,40.33,29.55V87.89h56.13a15.11,15.11,0,0,0,6.2-1A11.91,11.91,0,0,0,183,80c1-2.74.77-7.11-.45-9.07a10,10,0,0,0-2.22-2.72,30.86,30.86,0,0,0-6.1-3.81c-4-2.06-21.76-9.24-26.56-11.31-5.25-2.1-11.19-6.64-13.84-13a24.58,24.58,0,0,1,13.86-32.8,26.55,26.55,0,0,1,9.46-1.58h93.74c5.1.19,24.77,1.59,37.12,19.29,8.43,11.83,7.77,25.09,7.77,28.3,0,14.89-3,20.84-5.08,25.42-1.13,2.47-10.58,22-39.81,22H213.44V32.33h-4.3v72.73h41.76c29.83,0,39.93-17.76,43.58-24.26,3-5.27,5.57-12.1,5.57-27.57C300,47.63,300.62,35.56,292,22.9Z"/><path class="cls-1" d="M0,120.26H4.56l4.94,16.59,5.21-16.59h4.51l-7.3,22.16H7Z"/><path class="cls-1" d="M23.15,121.08a5.43,5.43,0,0,1,1.5-.63,5.21,5.21,0,0,1,1.18-.18l4.37.11a57.09,57.09,0,0,1,5.87.38v3.51H27.33q-1.12,0-1.39.55a3,3,0,0,0-.18,1.15v3.45l9,.3v3.51l-9,.27v3.45q0,1.15.64,1.39a3.41,3.41,0,0,0,1.24.18h8.45V142q-1.52.21-7.48.42l-2,.09h-.56c-.21,0-.49,0-.83,0a4.92,4.92,0,0,1-1.24-.32,4.35,4.35,0,0,1-1.27-.73,4.3,4.3,0,0,1-1.21-3.36v-13.2Q21.51,122.11,23.15,121.08Z"/><path class="cls-1" d="M40,142.42V120.26h4.24v9.51h7.6v-9.51h4.24v22.16H51.82v-8.78h-7.6v8.78Z"/><path class="cls-1" d="M60.45,142.42V120.26h4.24v22.16Z"/><path class="cls-1" d="M70,123a5.72,5.72,0,0,1,3.36-2.63A9.78,9.78,0,0,1,76,120a27.34,27.34,0,0,1,7.72,1v3.33l-.83-.09-.89-.08-1.13-.09L79.67,124c-.95-.06-1.8-.09-2.54-.09a8.6,8.6,0,0,0-1.74.13,3.26,3.26,0,0,0-1.2.55,2.35,2.35,0,0,0-.85,1.23,18.69,18.69,0,0,0-.6,5.6,12.73,12.73,0,0,0,.89,5.55A3.48,3.48,0,0,0,77,138.7q2.84,0,5.75-.18l1-.06v3.3a24.18,24.18,0,0,1-7,.85H76q-4.06,0-5.8-2.91t-1.74-8.55Q68.5,125.47,70,123Z"/><path class="cls-1" d="M87.57,138.13V120.26h4.24v16.68q0,1.15.64,1.39a3.41,3.41,0,0,0,1.24.18h7.6v3.91H92.17Q87.57,142.42,87.57,138.13Z"/><path class="cls-1" d="M106.65,121.08a5.43,5.43,0,0,1,1.5-.63,5.21,5.21,0,0,1,1.18-.18l4.37.11a57.09,57.09,0,0,1,5.87.38v3.51h-8.75q-1.12,0-1.39.55a3,3,0,0,0-.18,1.15v3.45l9,.3v3.51l-9,.27v3.45q0,1.15.64,1.39a3.41,3.41,0,0,0,1.24.18h8.45V142q-1.52.21-7.48.42l-2,.09h-.56c-.21,0-.49,0-.83,0a4.92,4.92,0,0,1-1.24-.32,4.35,4.35,0,0,1-1.27-.73,4.3,4.3,0,0,1-1.21-3.36v-13.2Q105,122.11,106.65,121.08Z"/><path class="cls-1" d="M131.92,127.71V125.8q0-3.18,1.73-4.51a7.08,7.08,0,0,1,4.27-1.21h1.53q1.16,0,3.42.24a21.94,21.94,0,0,1,3.62.64v3.33Q143,124,141,124h-2.2a4.2,4.2,0,0,0-2,.36q-.64.37-.64,1.79v1.09a2.15,2.15,0,0,0,.51,1.69,3,3,0,0,0,1.85.42H142q3.45,0,4.63,2.75a7.76,7.76,0,0,1,.6,3.12v1.48q0,4.06-2.69,5.3a7.87,7.87,0,0,1-3.42.67,31.69,31.69,0,0,1-8.57-.91v-3.33q3.33.33,5.81.33t2.89-.06a3.38,3.38,0,0,0,.83-.24,1.57,1.57,0,0,0,.91-1.6v-1.18q0-1.57-1-1.94a2.82,2.82,0,0,0-1-.15h-3.39Q131.92,133.58,131.92,127.71Z"/><path class="cls-1" d="M151.47,136.95a20.13,20.13,0,0,1-.35-2.42q-.12-1.36-.12-3.28a27.58,27.58,0,0,1,.23-3.63,16.26,16.26,0,0,1,.62-2.91,6.6,6.6,0,0,1,1.06-2,6.67,6.67,0,0,1,1.35-1.33,5.25,5.25,0,0,1,1.68-.76,11.89,11.89,0,0,1,3.32-.46q1.74,0,2.54.06a11.8,11.8,0,0,1,1.7.26A5.5,5.5,0,0,1,165,121a8.45,8.45,0,0,1,1.29.92,4.41,4.41,0,0,1,1.08,1.42,12.72,12.72,0,0,1,.76,2,18.46,18.46,0,0,1,.67,5.24,35.47,35.47,0,0,1-.23,4.62A17.76,17.76,0,0,1,168,138a6.61,6.61,0,0,1-1,2,6.38,6.38,0,0,1-1.3,1.33,5.12,5.12,0,0,1-1.65.77,17.27,17.27,0,0,1-5.9.42,8.43,8.43,0,0,1-2.72-.45,9.41,9.41,0,0,1-1.47-.77,3.94,3.94,0,0,1-1-1,8.9,8.9,0,0,1-.82-1.42A8.62,8.62,0,0,1,151.47,136.95Zm4.1-10a18.64,18.64,0,0,0-.24,1.92q-.09,1.12-.09,2.81t.12,2.89a9.25,9.25,0,0,0,.41,2,2.53,2.53,0,0,0,.86,1.27,5.57,5.57,0,0,0,3.27.76,5.3,5.3,0,0,0,3.18-.79q1.48-1.12,1.48-6.36a18.31,18.31,0,0,0-.38-4.69,7.55,7.55,0,0,0-.7-1.63,2.12,2.12,0,0,0-.89-.76,5.7,5.7,0,0,0-2.21-.39q-1.27,0-1.77,0a6.31,6.31,0,0,0-1.06.2,1.94,1.94,0,0,0-.88.47,4.17,4.17,0,0,0-1.1,2.21Z"/><path class="cls-1" d="M172.86,138.13V120.26h4.24v16.68q0,1.15.64,1.39a3.41,3.41,0,0,0,1.24.18h7.6v3.91h-9.11Q172.86,142.42,172.86,138.13Z"/><path class="cls-1" d="M197.86,142.57h-.42q-3.63,0-4.84-.76a9,9,0,0,1-1.27-1.08,4.48,4.48,0,0,1-1.09-1.74,18.75,18.75,0,0,1-.91-6.27V120.26h4.24v12.47a11.71,11.71,0,0,0,.58,4.27,2.64,2.64,0,0,0,2,1.54,11.51,11.51,0,0,0,1.92.12,4.44,4.44,0,0,0,2.1-.45q1.79-1,1.79-5.48V120.26h4.27v12.47q0,4.76-1.39,6.9a7.3,7.3,0,0,1-.89,1.23,4,4,0,0,1-1.12.82,9.12,9.12,0,0,1-1.16.51,6.37,6.37,0,0,1-1.3.26A22.16,22.16,0,0,1,197.86,142.57Z"/><path class="cls-1" d="M209.73,124.17v-3.9h16.38v3.9H220v18.26h-4.24V124.17Z"/><path class="cls-1" d="M229.8,142.42V120.26H234v22.16Z"/><path class="cls-1" d="M238.57,136.95a20.13,20.13,0,0,1-.35-2.42q-.12-1.36-.12-3.28a27.58,27.58,0,0,1,.23-3.63,16.26,16.26,0,0,1,.62-2.91,6.6,6.6,0,0,1,1.06-2,6.67,6.67,0,0,1,1.35-1.33,5.25,5.25,0,0,1,1.68-.76,11.89,11.89,0,0,1,3.32-.46q1.74,0,2.54.06a11.8,11.8,0,0,1,1.7.26,5.5,5.5,0,0,1,1.53.56,8.45,8.45,0,0,1,1.29.92,4.41,4.41,0,0,1,1.08,1.42,12.72,12.72,0,0,1,.76,2,18.46,18.46,0,0,1,.67,5.24,35.47,35.47,0,0,1-.23,4.62,17.76,17.76,0,0,1-.59,2.78,6.61,6.61,0,0,1-1,2,6.38,6.38,0,0,1-1.3,1.33,5.12,5.12,0,0,1-1.65.77,17.27,17.27,0,0,1-5.9.42,8.43,8.43,0,0,1-2.72-.45,9.41,9.41,0,0,1-1.47-.77,3.94,3.94,0,0,1-1-1,8.9,8.9,0,0,1-.82-1.42A8.62,8.62,0,0,1,238.57,136.95Zm4.1-10a18.64,18.64,0,0,0-.24,1.92q-.09,1.12-.09,2.81t.12,2.89a9.25,9.25,0,0,0,.41,2,2.53,2.53,0,0,0,.86,1.27,5.57,5.57,0,0,0,3.27.76,5.3,5.3,0,0,0,3.18-.79q1.48-1.12,1.48-6.36a18.31,18.31,0,0,0-.38-4.69,7.55,7.55,0,0,0-.7-1.63,2.12,2.12,0,0,0-.89-.76,5.7,5.7,0,0,0-2.21-.39q-1.27,0-1.77,0a6.31,6.31,0,0,0-1.06.2,1.94,1.94,0,0,0-.88.47,4.17,4.17,0,0,0-1.1,2.21Z"/><path class="cls-1" d="M260,142.42V120.26h4.3L273,134.58V120.26h4.24v22.16H273l-8.81-14.17v14.17Z"/><path class="cls-1" d="M281.36,127.71V125.8q0-3.18,1.73-4.51a7.08,7.08,0,0,1,4.27-1.21h1.53q1.16,0,3.42.24a21.94,21.94,0,0,1,3.62.64v3.33q-3.45-.3-5.49-.3h-2.2a4.2,4.2,0,0,0-2,.36q-.64.37-.64,1.79v1.09a2.15,2.15,0,0,0,.51,1.69,3,3,0,0,0,1.85.42h3.51q3.45,0,4.63,2.75a7.76,7.76,0,0,1,.6,3.12v1.48q0,4.06-2.69,5.3a7.87,7.87,0,0,1-3.42.67,31.69,31.69,0,0,1-8.57-.91v-3.33q3.33.33,5.81.33t2.89-.06a3.38,3.38,0,0,0,.83-.24,1.57,1.57,0,0,0,.91-1.6v-1.18q0-1.57-1-1.94a2.82,2.82,0,0,0-1-.15h-3.39Q281.36,133.58,281.36,127.71Z"/></svg>