<?xml version="1.0" encoding="UTF-8"?>
<svg width="21px" height="18px" viewBox="0 0 21 18" version="1.1" xmlns="http://www.w3.org/2000/svg" xmlns:xlink="http://www.w3.org/1999/xlink">
    <!-- Generator: Sketch 46.2 (44496) - http://www.bohemiancoding.com/sketch -->
    <title>Page 1</title>
    <desc>Created with Sketch.</desc>
    <defs></defs>
    <g id="Page-1" stroke="none" stroke-width="1" fill="none" fill-rule="evenodd">
        <g id="Desktop-HD" transform="translate(-1240.000000, -3173.000000)" fill="#FAFAFA">
            <g id="Group-10" transform="translate(1228.000000, 3164.636719)">
                <path d="M32.2646213,16.3750504 L23.37766,9.05085149 C23.2127028,8.91496807 22.9817629,8.88594593 22.7878352,8.97677544 C22.5941137,9.06739875 22.4702927,9.26529574 22.4702927,9.47979153 L22.4702927,13.3398911 C18.1567158,13.4965488 15.1916117,15.0182781 13.6491596,17.8679638 C12.3213579,20.3258764 12.3336781,23.2373178 12.346153,25.1631921 L12.346153,25.6085763 C12.346153,25.8600844 12.5150794,26.082828 12.7625666,26.148914 C12.8080845,26.1611311 12.857417,26.165152 12.9029348,26.165152 C13.1008834,26.165152 13.2863055,26.0620538 13.3853828,25.8848795 C16.3957471,20.5773844 18.8743823,20.3216493 22.4662719,20.3093291 L22.4662719,24.1569538 C22.4662719,24.371398 22.5898866,24.5693465 22.7878352,24.6599698 C22.9857837,24.7507994 23.2127028,24.7217772 23.3816808,24.5858938 L32.2646213,17.2368998 C32.3924631,17.1297807 32.4667969,16.973123 32.4667969,16.8080113 C32.4667969,16.6430542 32.3924631,16.4821694 32.2646213,16.3750504" id="Page-1"></path>
            </g>
        </g>
    </g>
</svg>