<svg xmlns="http://www.w3.org/2000/svg" viewBox="0 0 500 500"><defs><style>.cls-1{fill:#fbbb00;}.cls-2{fill:#518ef8;}.cls-3{fill:#28b446;}.cls-4{fill:#f14336;}</style></defs><path class="cls-1" d="M111.76,301.65l-80.62,66a249.22,249.22,0,0,1-1.83-232.28h0l81,66.34a148.48,148.48,0,0,0,1.4,100Z"/><path class="cls-2" d="M494.65,203.28A248.63,248.63,0,0,1,406,443.73h0l-81-66.33a148.24,148.24,0,0,0,63.79-75.7h-133V203.28H494.65Z"/><path class="cls-3" d="M406,443.72h0a248.83,248.83,0,0,1-374.84-76.1l80.62-66a147.93,147.93,0,0,0,213.18,75.74Z"/><path class="cls-4" d="M409,58.27l-80.59,66a147.92,147.92,0,0,0-218.08,77.45l-81-66.34h0A248.81,248.81,0,0,1,409,58.27Z"/></svg>