<svg id="Layer_1" data-name="Layer 1" xmlns="http://www.w3.org/2000/svg" viewBox="0 0 54 81.34"><defs><style>.cls-1{fill:#fff;fill-rule:evenodd;}</style></defs><title>Artboard 1</title><path class="cls-1" d="M49.39,73.82,37,78.78a5.41,5.41,0,0,1-2,.46A6.62,6.62,0,0,1,32.84,79l-.41-.13c-.23-.07-.51-.18-.87-.33a31.69,31.69,0,0,1-9.79-7.14,62.52,62.52,0,0,1-7-8.91,74.7,74.7,0,0,1-7-13.82A78,78,0,0,1,3.81,36.8,65.86,65.86,0,0,1,2.2,27.09a44.52,44.52,0,0,1-.06-7.54A38.18,38.18,0,0,1,3,14.09,17.8,17.8,0,0,1,4.1,10.73c.38-.77.59-1.2.62-1.29A7.14,7.14,0,0,1,6.11,7.82,5.55,5.55,0,0,1,7.88,6.75l12.44-5a3.17,3.17,0,0,1,2.49,0,2.62,2.62,0,0,1,1.3,1.13,5,5,0,0,1,.6,1.69l1.37,16.31a3.44,3.44,0,0,1-.65,2.44,4.39,4.39,0,0,1-2,1.63l-4.59,1.85a1.23,1.23,0,0,0-.41.33,1.92,1.92,0,0,0-.31.45A13.13,13.13,0,0,0,18,31.18a30.79,30.79,0,0,0,.8,4.88,47,47,0,0,0,2.44,7.2,48.21,48.21,0,0,0,3.26,6.92,32.15,32.15,0,0,0,2.8,4.09,11,11,0,0,0,2,2l.75.51a1.38,1.38,0,0,0,.47.08,1.16,1.16,0,0,0,.52,0l5.36-2.22a4.34,4.34,0,0,1,3.21.12,3.63,3.63,0,0,1,1.6,1.14l9.56,12.9a3.6,3.6,0,0,1,.73,2.86A3.29,3.29,0,0,1,49.39,73.82Z"/></svg>