<svg xmlns="http://www.w3.org/2000/svg" viewBox="0 0 600 114.01"><defs><style>.cls-1{fill:#ffdb00;}</style></defs><polygon class="cls-1" points="94.49 112.59 58.41 86.33 22.28 112.54 36.1 70.1 0.01 43.84 44.64 43.88 58.47 1.44 72.23 43.9 116.86 43.93 80.73 70.13 94.49 112.59"/><polygon class="cls-1" points="214.86 112.59 178.77 86.33 142.65 112.54 156.47 70.1 120.38 43.84 165.01 43.88 178.83 1.44 192.59 43.9 237.22 43.93 201.1 70.13 214.86 112.59"/><polygon class="cls-1" points="335.23 112.59 299.14 86.33 263.02 112.54 276.84 70.1 240.75 43.84 285.38 43.88 299.2 1.44 312.96 43.9 357.59 43.93 321.47 70.13 335.23 112.59"/><polygon class="cls-1" points="455.6 112.59 419.51 86.33 383.38 112.54 397.2 70.1 361.12 43.84 405.75 43.88 419.57 1.44 433.33 43.9 477.96 43.93 441.83 70.13 455.6 112.59"/><polygon class="cls-1" points="575.96 112.59 539.88 86.33 503.75 112.54 517.57 70.1 481.49 43.84 526.12 43.88 539.94 1.44 553.7 43.9 598.33 43.93 562.2 70.13 575.96 112.59"/></svg>