<svg xmlns="http://www.w3.org/2000/svg" viewBox="0 0 500 500"><defs><style>.cls-1{fill:#fbda00;}</style></defs><rect class="cls-1" x="0" y="0" width="500" height="500"/><path d="M255.88.52c11.21,30.53,22.89,60.88,37,90.24q64.08,133.74,128.28,267.4c2.11,4.41,1.61,5.17-3.3,5.23-26.47.31-46.9-10.5-61.12-33C322.89,277,290.23,222.89,256.92,169.18c-7.63-12.29-15.53-24.46-26.85-33.84-13.54-11.22-37-17.58-56.74.23q-23.19,20.93-47.2,40.92c-14,11.69-30,17.77-48.62,13.75C71.61,189,66.18,186.53,62,182c-3.65-3.92-3.56-6.86.1-10.7C78.7,153.89,95.42,136.59,110.83,118c20.93-25.25,30.32-53.87,28.1-86.52-.7-10.3-.82-20.65-1.21-31,5.63,0,11.27-.11,16.9-.12q49.22,0,98.41,0C254,.4,254.93.48,255.88.52Z"/><path d="M452,408.26c2.63,0,2.93.87,2.76,3.08a45.66,45.66,0,0,1-45.4,42.22q-159,0-318-.14c-24.83,0-44.64-18.39-46-42.39-.12-2.13.28-2.75,2.55-2.75C115.39,408.35,384.77,408.36,452,408.26Z"/><path d="M90.9,338.45c.18-8.27,4.63-17.21,10.12-25.65q49.06-75.37,98.32-150.62c4-6.07,7.11-7.27,14.14-5.46a34.81,34.81,0,0,1,7.79,2.87c12.45,6.73,22,16.59,29.62,28.36,1.8,2.77,1.74,5.31-.34,8.09-42.23,56.12-84,112.59-127,168.09-3,3.83-6.58,4.86-11.14,3.65C98.51,364.09,90.86,354.46,90.9,338.45Z"/></svg>